<svg width="280" height="280" viewBox="0 0 280 280" fill="none" xmlns="http://www.w3.org/2000/svg">
<g clip-path="url(#clip0_4906_7333)">
<g clip-path="url(#clip1_4906_7333)">
<g filter="url(#filter0_i_4906_7333)">
<path d="M131.393 50.7887L129.326 55.0022H139.125L141.314 50.7886L131.393 50.7887Z" fill="white"/>
<path d="M144.531 58.3696L143.396 60.572H123.065L121 64.7856H141.285L141.289 64.7779L149.64 64.7704L144.531 58.3696Z" fill="white"/>
<path d="M129.414 41L121.006 41.0076L126.115 47.4082L127.243 45.2174H147.444L149.635 41.0038H129.411L129.414 41Z" fill="white"/>
</g>
<path d="M187.763 21.0359C170.596 17.5705 153.012 15.813 135.498 15.813C117.983 15.813 100.401 17.572 83.2357 21.0359C68.2155 24.0676 53.4006 28.4335 39.103 34.0316V121.201C39.103 139.448 42.6826 158.126 49.737 176.716C56.0374 193.312 64.9926 209.609 76.3522 225.155C86.2863 238.752 97.9831 251.562 110.179 262.197C118.827 269.743 127.619 276.077 135.498 280.486C143.377 276.077 152.167 269.743 160.819 262.197C173.012 251.562 184.712 238.752 194.646 225.155C206.006 209.611 214.96 193.313 221.26 176.716C228.317 158.128 231.897 139.45 231.897 121.201V34.0316C217.596 28.4335 202.784 24.0676 187.764 21.0359H187.763ZM229.881 121.201C229.881 139.202 226.348 157.638 219.377 176C213.141 192.425 204.275 208.563 193.023 223.965C183.173 237.439 171.581 250.136 159.494 260.675C151.327 267.799 143.054 273.827 135.496 278.167C127.94 273.827 119.665 267.799 111.498 260.675C99.4162 250.136 87.8228 237.442 77.9727 223.965C66.7195 208.563 57.8513 192.425 51.6153 176C44.6478 157.638 41.1116 139.202 41.1116 121.201V35.4123C54.8982 30.0964 69.1959 25.9256 83.6315 23.0125C100.666 19.5711 118.118 17.8301 135.496 17.8301C152.874 17.8301 170.328 19.5711 187.364 23.0125C201.798 25.9256 216.093 30.0964 229.881 35.4123V121.201Z" fill="url(#paint0_linear_4906_7333)"/>
<path style="mix-blend-mode:multiply" d="M229.882 35.4123V121.201C229.882 139.202 226.349 157.638 219.379 176C213.143 192.425 204.276 208.563 193.024 223.965C183.174 237.439 171.582 250.136 159.496 260.675C151.329 267.799 143.056 273.827 135.498 278.167C127.941 273.827 119.667 267.799 111.5 260.675C99.4177 250.136 87.8243 237.442 77.9742 223.965C66.721 208.563 57.8528 192.425 51.6168 176C44.6493 157.638 41.1131 139.202 41.1131 121.201V35.4123C54.8997 30.0964 69.1974 25.9256 83.633 23.0124C100.668 19.571 118.12 17.8301 135.498 17.8301C152.876 17.8301 170.329 19.571 187.366 23.0124C201.8 25.9256 216.094 30.0964 229.882 35.4123Z" fill="url(#paint1_linear_4906_7333)"/>
<path style="mix-blend-mode:screen" opacity="0.45" d="M229.769 35.4123V121.201C229.769 139.202 226.236 157.638 219.266 176C213.03 192.425 204.163 208.563 192.911 223.965C183.061 237.439 171.469 250.136 159.382 260.675C151.216 267.799 142.943 273.827 135.385 278.167C127.828 273.827 119.553 267.799 111.387 260.675C99.3046 250.136 87.7111 237.442 77.861 223.965C66.6078 208.563 57.7396 192.425 51.5037 176C44.5362 157.638 41 139.202 41 121.201V35.4123C54.7865 30.0964 69.0842 25.9256 83.5198 23.0124C100.555 19.571 118.006 17.8301 135.385 17.8301C152.763 17.8301 170.216 19.571 187.252 23.0124C201.686 25.9256 215.981 30.0964 229.769 35.4123Z" fill="url(#paint2_linear_4906_7333)"/>
<path style="mix-blend-mode:screen" opacity="0.79" d="M229.882 79.927V35.4123C216.096 30.0964 201.801 25.9256 187.366 23.0124C170.331 19.571 152.879 17.8301 135.498 17.8301C118.117 17.8301 100.669 19.571 83.633 23.0124C69.1989 25.9256 54.9012 30.0964 41.1131 35.4123V121.201C41.1131 139.202 44.6493 157.638 51.6168 176C54.2896 183.04 57.451 190.028 61.0712 196.927C108.446 145.303 154.412 114.562 229.879 79.9254L229.882 79.927Z" fill="url(#paint3_linear_4906_7333)"/>
<path style="mix-blend-mode:screen" d="M37.6924 -20C42.9599 -20 47.2322 18.5038 47.2337 66.0006C47.2337 113.497 42.9629 152 37.6924 152C32.4218 152 28.1526 113.497 28.1526 66.0006C28.1526 18.5038 32.4218 -20 37.6924 -20Z" fill="url(#paint4_radial_4906_7333)"/>
<path style="mix-blend-mode:screen" d="M37.6924 46.1822C48.2605 46.1822 56.8259 55.0551 56.8274 66.0006C56.8274 76.9462 48.2605 85.8191 37.6924 85.8191C27.1242 85.8191 18.5588 76.9462 18.5588 65.9991C18.5588 55.0536 27.1242 46.1822 37.6924 46.1807V46.1822Z" fill="url(#paint5_radial_4906_7333)"/>
<path style="mix-blend-mode:color-dodge" d="M64.4065 66.6728C63.3212 111.659 52.1954 147.827 39.5587 147.455C26.9219 147.084 17.5575 110.315 18.6428 65.3265C19.7296 20.3421 30.8538 -15.8264 43.4906 -15.4542C56.1274 -15.0835 65.4918 21.6854 64.4065 66.6728Z" fill="url(#paint6_radial_4906_7333)"/>
<path style="mix-blend-mode:screen" d="M55.8426 55.3779C61.251 64.6351 58.1406 76.5262 48.8946 81.9412C39.6501 87.3561 27.7718 84.2419 22.3633 74.9848C16.9549 65.7292 20.0653 53.8366 29.3098 48.4216C38.5543 43.0066 50.4326 46.1208 55.8411 55.3764L55.8426 55.3779Z" fill="url(#paint7_radial_4906_7333)"/>
<path style="mix-blend-mode:screen" d="M39.74 64.809C51.9646 85.7321 61.5898 102.861 61.2375 103.067C60.8868 103.272 50.6904 86.478 38.4659 65.5549C26.2413 44.6318 16.6161 27.5044 16.9683 27.2987C17.3206 27.0931 27.5155 43.8874 39.74 64.809Z" fill="url(#paint8_radial_4906_7333)"/>
<path style="mix-blend-mode:screen" d="M39.4747 65.8207C18.5768 78.0599 1.46993 87.6968 1.26456 87.3441C1.05919 86.9929 17.8333 76.7857 38.7297 64.5465C59.6276 52.3072 76.736 42.6704 76.9413 43.0231C77.1467 43.3757 60.3741 53.5829 39.4747 65.8222V65.8207Z" fill="url(#paint9_radial_4906_7333)"/>
<path style="mix-blend-mode:screen" d="M39.1974 64.8242C50.9347 67.9024 60.4086 70.5574 60.3576 70.754C60.3067 70.9521 50.7489 68.6168 39.01 65.5401C27.2726 62.4619 17.7988 59.8085 17.8498 59.6104C17.9007 59.4123 27.4585 61.7475 39.1974 64.8242Z" fill="url(#paint10_radial_4906_7333)"/>
<path style="mix-blend-mode:screen" d="M39.4612 65.2759C36.3882 77.0274 33.7364 86.5126 33.5386 86.4616C33.3407 86.4106 35.6732 76.8413 38.7462 65.0883C41.8207 53.3368 44.4725 43.8515 44.6688 43.9025C44.8667 43.9551 42.5342 53.5229 39.4612 65.2759Z" fill="url(#paint11_radial_4906_7333)"/>
<path style="mix-blend-mode:screen" d="M42.0575 70.2433C30.1088 77.2417 19.097 80.6501 17.463 77.8541C15.8291 75.058 24.1937 67.1186 36.1424 60.1202C48.0926 53.1219 59.1029 49.7135 60.7369 52.5095C62.3708 55.3041 54.0063 63.245 42.0575 70.2433Z" fill="url(#paint12_radial_4906_7333)"/>
<path style="mix-blend-mode:screen" d="M44.1562 62.2214C51.1461 74.1861 54.5504 85.2096 51.7577 86.8456C48.9665 88.4815 41.0352 80.1068 34.0452 68.1437C27.0553 56.1791 23.651 45.1555 26.4437 43.5196C29.2364 41.8837 37.1662 50.2583 44.1562 62.2214Z" fill="url(#paint13_radial_4906_7333)"/>
<path style="mix-blend-mode:screen" d="M46.8649 60.6352C49.3728 64.9276 47.9307 70.4431 43.6435 72.954C39.3563 75.4649 33.8474 74.0211 31.3395 69.7272C28.8316 65.4349 30.2752 59.9193 34.5609 57.4084C38.8481 54.8975 44.357 56.3413 46.8649 60.6337V60.6352Z" fill="url(#paint14_radial_4906_7333)"/>
<path d="M99.2813 217.216C98.0213 217.216 96.9173 216.94 95.9693 216.388C95.0333 215.836 94.2953 215.074 93.7553 214.102C93.2273 213.118 92.9633 211.984 92.9633 210.7C92.9633 209.416 93.2273 208.288 93.7553 207.316C94.2953 206.332 95.0333 205.564 95.9693 205.012C96.9173 204.46 98.0213 204.184 99.2813 204.184C100.529 204.184 101.627 204.46 102.575 205.012C103.523 205.564 104.261 206.332 104.789 207.316C105.317 208.288 105.581 209.416 105.581 210.7C105.581 211.984 105.317 213.118 104.789 214.102C104.261 215.074 103.523 215.836 102.575 216.388C101.627 216.94 100.529 217.216 99.2813 217.216ZM99.2813 215.146C100.481 215.146 101.435 214.75 102.143 213.958C102.863 213.166 103.223 212.08 103.223 210.7C103.223 209.32 102.863 208.234 102.143 207.442C101.435 206.65 100.481 206.254 99.2813 206.254C98.0813 206.254 97.1213 206.65 96.4013 207.442C95.6813 208.234 95.3213 209.32 95.3213 210.7C95.3213 212.08 95.6813 213.166 96.4013 213.958C97.1213 214.75 98.0813 215.146 99.2813 215.146ZM113.322 217.216C112.05 217.216 110.958 216.946 110.046 216.406C109.134 215.854 108.432 215.092 107.94 214.12C107.448 213.136 107.202 212.002 107.202 210.718C107.202 209.434 107.448 208.3 107.94 207.316C108.432 206.332 109.134 205.564 110.046 205.012C110.958 204.46 112.05 204.184 113.322 204.184C114.834 204.184 116.07 204.562 117.03 205.318C118.002 206.062 118.608 207.112 118.848 208.468H116.31C116.154 207.784 115.818 207.25 115.302 206.866C114.798 206.47 114.126 206.272 113.286 206.272C112.122 206.272 111.21 206.668 110.55 207.46C109.89 208.252 109.56 209.338 109.56 210.718C109.56 212.098 109.89 213.184 110.55 213.976C111.21 214.756 112.122 215.146 113.286 215.146C114.126 215.146 114.798 214.966 115.302 214.606C115.818 214.234 116.154 213.724 116.31 213.076H118.848C118.608 214.372 118.002 215.386 117.03 216.118C116.07 216.85 114.834 217.216 113.322 217.216ZM123.663 217V206.254H119.991V204.4H129.657V206.254H125.967V217H123.663ZM136.811 217.216C135.551 217.216 134.447 216.94 133.499 216.388C132.563 215.836 131.825 215.074 131.285 214.102C130.757 213.118 130.493 211.984 130.493 210.7C130.493 209.416 130.757 208.288 131.285 207.316C131.825 206.332 132.563 205.564 133.499 205.012C134.447 204.46 135.551 204.184 136.811 204.184C138.059 204.184 139.157 204.46 140.105 205.012C141.053 205.564 141.791 206.332 142.319 207.316C142.847 208.288 143.111 209.416 143.111 210.7C143.111 211.984 142.847 213.118 142.319 214.102C141.791 215.074 141.053 215.836 140.105 216.388C139.157 216.94 138.059 217.216 136.811 217.216ZM136.811 215.146C138.011 215.146 138.965 214.75 139.673 213.958C140.393 213.166 140.753 212.08 140.753 210.7C140.753 209.32 140.393 208.234 139.673 207.442C138.965 206.65 138.011 206.254 136.811 206.254C135.611 206.254 134.651 206.65 133.931 207.442C133.211 208.234 132.851 209.32 132.851 210.7C132.851 212.08 133.211 213.166 133.931 213.958C134.651 214.75 135.611 215.146 136.811 215.146ZM145.145 217V204.4H149.807C150.815 204.4 151.649 204.568 152.309 204.904C152.969 205.24 153.461 205.702 153.785 206.29C154.109 206.878 154.271 207.538 154.271 208.27C154.271 208.966 154.115 209.608 153.803 210.196C153.491 210.772 153.005 211.24 152.345 211.6C151.685 211.948 150.839 212.122 149.807 212.122H147.449V217H145.145ZM147.449 210.25H149.663C150.467 210.25 151.043 210.076 151.391 209.728C151.751 209.368 151.931 208.882 151.931 208.27C151.931 207.646 151.751 207.16 151.391 206.812C151.043 206.452 150.467 206.272 149.663 206.272H147.449V210.25ZM160.938 217.216C160.014 217.216 159.18 217.036 158.436 216.676C157.692 216.304 157.098 215.746 156.654 215.002C156.222 214.258 156.006 213.316 156.006 212.176V204.4H158.31V212.194C158.31 213.178 158.544 213.91 159.012 214.39C159.492 214.87 160.152 215.11 160.992 215.11C161.82 215.11 162.474 214.87 162.954 214.39C163.434 213.91 163.674 213.178 163.674 212.194V204.4H165.978V212.176C165.978 213.316 165.75 214.258 165.294 215.002C164.838 215.746 164.226 216.304 163.458 216.676C162.702 217.036 161.862 217.216 160.938 217.216ZM172.632 217.216C171.708 217.216 170.892 217.06 170.184 216.748C169.476 216.424 168.918 215.968 168.51 215.38C168.102 214.78 167.892 214.054 167.88 213.202H170.31C170.334 213.79 170.544 214.288 170.94 214.696C171.348 215.092 171.906 215.29 172.614 215.29C173.226 215.29 173.712 215.146 174.072 214.858C174.432 214.558 174.612 214.162 174.612 213.67C174.612 213.154 174.45 212.752 174.126 212.464C173.814 212.176 173.394 211.942 172.866 211.762C172.338 211.582 171.774 211.39 171.174 211.186C170.202 210.85 169.458 210.418 168.942 209.89C168.438 209.362 168.186 208.66 168.186 207.784C168.174 207.04 168.348 206.404 168.708 205.876C169.08 205.336 169.584 204.922 170.22 204.634C170.856 204.334 171.588 204.184 172.416 204.184C173.256 204.184 173.994 204.334 174.63 204.634C175.278 204.934 175.782 205.354 176.142 205.894C176.514 206.434 176.712 207.076 176.736 207.82H174.27C174.258 207.376 174.084 206.986 173.748 206.65C173.424 206.302 172.968 206.128 172.38 206.128C171.876 206.116 171.45 206.242 171.102 206.506C170.766 206.758 170.598 207.13 170.598 207.622C170.598 208.042 170.73 208.378 170.994 208.63C171.258 208.87 171.618 209.074 172.074 209.242C172.53 209.41 173.052 209.59 173.64 209.782C174.264 209.998 174.834 210.25 175.35 210.538C175.866 210.826 176.28 211.21 176.592 211.69C176.904 212.158 177.06 212.764 177.06 213.508C177.06 214.168 176.892 214.78 176.556 215.344C176.22 215.908 175.722 216.364 175.062 216.712C174.402 217.048 173.592 217.216 172.632 217.216Z" fill="white"/>
<g filter="url(#filter1_d_4906_7333)">
<path d="M208.989 138.737C208.978 138.431 208.961 138.132 208.93 137.826C208.786 136.311 208.412 134.773 207.529 133.527C206.649 132.28 205.192 131.37 203.662 131.439C202.135 131.509 200.656 132.749 200.6 134.273C200.57 135.228 201.219 136.136 202.06 136.549C202.537 136.78 203.085 136.388 203.038 135.864C203.002 135.417 203.172 134.901 203.526 134.642C204.194 134.157 205.208 134.473 205.704 135.134C206.195 135.794 206.259 136.683 206.156 137.496C205.788 140.449 203.559 142.839 201.157 144.613C196.282 148.222 190.22 150.203 184.149 150.176C178.073 150.151 172.03 148.116 167.188 144.46C166.126 143.661 165.129 142.789 164.165 141.876C165.734 142.129 167.313 142.29 168.898 142.351C169.848 142.39 170.796 142.39 171.746 142.354C175.069 142.229 178.368 141.635 181.499 140.494C188.565 137.921 194.68 132.391 197.134 125.31C197.683 123.725 198.054 122.051 197.887 120.389C197.803 119.523 197.552 118.659 197.143 117.893C196.767 117.183 196.254 116.561 195.599 116.086C194.12 115.009 192 114.89 190.409 115.792C189.342 116.394 188.763 117.466 188.545 118.654C188.464 119.104 188.969 119.423 189.362 119.184C189.562 119.059 189.782 118.973 190.013 118.926C190.771 118.77 191.574 119.012 192.2 119.464C193.621 120.48 194.145 122.454 193.716 124.142C193.29 125.827 192.05 127.228 190.585 128.178C189.125 129.132 187.445 129.685 185.765 130.179C181.527 131.414 177.137 132.286 172.721 132.175C168.308 132.064 163.842 130.917 160.217 128.4C160.042 128.278 159.869 128.15 159.696 128.022H159.699C160.181 127.742 160.644 127.425 161.078 127.076C161.307 126.89 161.532 126.695 161.747 126.493C162.803 125.513 163.686 124.336 164.38 123.07C165.714 120.633 166.391 117.885 166.795 115.137C167.809 108.303 167.241 101.344 167.561 94.4407C167.882 87.5373 169.224 80.3758 173.467 74.9103C176.223 71.3601 180.538 68.6065 185.015 69.1311C186.255 69.2782 187.506 69.6974 188.4 70.5662C189.295 71.435 189.752 72.8118 189.3 73.9721C188.997 74.7465 188.13 75.4016 187.258 75.5765C186.576 75.7153 186.328 76.5397 186.821 77.031C187.317 77.5251 187.991 77.8582 188.693 77.9303C190.002 78.0691 191.323 77.3946 192.148 76.3731C193.605 74.5772 193.557 71.8486 192.351 69.8806C191.142 67.9098 188.955 66.6718 186.681 66.2249C184.411 65.7807 182.051 66.0528 179.794 66.5802C179.627 66.6218 179.46 66.6607 179.293 66.7023C173.022 68.2928 167.157 72.0679 163.984 77.6777C161.504 82.0524 160.805 87.1709 160.072 92.1396C159.186 98.0881 158.192 104.05 156.278 109.755C155.417 112.336 154.342 114.907 152.567 116.969C152.191 117.405 151.784 117.816 151.341 118.193C150.438 118.965 149.41 119.595 148.31 120.003H148.307C148.282 120.011 148.257 120.022 148.232 120.031C148.226 120.008 148.218 119.989 148.212 119.967C148.207 119.956 148.204 119.942 148.201 119.931C148.132 119.709 148.062 119.489 148.001 119.262C147.669 118.096 147.978 117.594 148.157 116.447C148.335 115.326 148.99 112.872 148.803 111.756C148.419 109.46 146.817 108.589 146.064 106.399C144.702 102.435 143.989 98.2824 142.916 94.2325C141.841 90.1827 140.359 86.1383 137.695 82.8935C135.703 80.4646 133.057 78.6076 130.131 77.4529C126.688 76.0928 122.854 75.7069 119.235 76.5036C113.354 77.7916 108.272 82.1468 105.968 87.6734C105.648 88.4367 105.383 89.2222 105.177 90.0244C103.982 94.6517 104.784 99.9645 108.055 103.451C110.036 105.561 112.713 106.848 115.21 108.311C117.706 109.777 121.029 111.445 121.28 114.321C121.445 116.181 121.612 118.065 122.233 119.828C122.381 120.242 122.556 120.652 122.76 121.047C121.645 122.834 120.068 124.292 118.249 125.418C116.466 126.529 114.46 127.328 112.429 127.822C107.916 128.927 103.205 128.774 98.5577 128.891C98.0227 128.905 97.4878 128.922 96.9501 128.944C91.7041 129.157 86.4024 129.865 81.733 132.216C76.5873 134.812 72.3192 139.767 71.9821 145.504C71.7257 149.868 73.6982 154.337 72.0545 158.511C71.748 159.283 71.149 159.927 70.3606 160.182C68.6834 160.718 67.7056 159.105 67.9424 157.787C68.0427 157.226 68.3129 156.715 68.6751 156.266C68.9676 155.905 68.6472 155.38 68.1903 155.45C66.0395 155.786 64.1701 157.112 63.4291 159.178C63.3956 159.253 63.3706 159.336 63.3455 159.416C62.5236 162.073 63.7021 165.201 66.0674 166.667C68.4355 168.13 71.7759 167.785 73.7957 165.876C75.1553 164.59 75.8156 162.878 76.2697 161.043C76.3895 160.563 76.4926 160.08 76.5929 159.588C77.0832 160.393 77.6599 161.151 78.3286 161.834C80.2481 163.808 82.7778 165.168 84.455 167.35C86.3717 169.848 86.9317 173.309 85.9009 176.276C85.4412 177.6 84.6472 178.861 83.4492 179.599C82.2512 180.34 80.6131 180.451 79.4625 179.641C78.3174 178.825 77.9274 177.018 78.8412 175.952C77.0999 176.865 76.1861 178.955 76.9913 180.748C77.7909 182.541 79.6658 183.691 81.6021 184.049C85.1013 184.701 88.6841 182.933 90.9017 180.126C91.5147 179.358 92.0189 178.508 92.3923 177.614C94.1391 173.442 93.4147 168.554 91.3893 164.507C90.1467 162.023 88.4445 159.78 87.3245 157.237C86.2046 154.697 85.7254 151.661 86.9986 149.19C88.5754 146.14 92.3532 144.863 95.7967 144.846C96.2007 144.846 96.5991 144.857 97.0031 144.88C97.1619 144.888 97.3179 144.899 97.4739 144.91C100.343 145.118 103.182 145.798 106.063 145.89C108.211 145.959 110.345 145.66 112.393 145.049C112.404 145.046 112.41 145.043 112.41 145.043C111.15 147.561 110.103 150.162 109.482 152.904C108.98 155.106 108.782 157.384 108.888 159.644C108.922 160.466 109 161.284 109.111 162.098C109.027 162.087 108.941 162.07 108.857 162.059C103.358 161.382 97.7024 165.287 96.2787 170.619C94.8523 175.96 97.7219 182.07 102.686 184.521C106.62 186.466 111.279 186.197 115.586 185.375C116.112 185.273 116.639 185.164 117.165 185.042C119.386 184.518 121.559 183.752 123.373 182.391C123.568 182.242 123.757 182.086 123.944 181.931C125.331 182.097 126.763 181.881 128.059 181.339C129.385 181.492 130.725 181.514 132.054 181.395C132.054 181.395 132.055 181.395 132.056 181.395C133.296 181.281 134.522 181.048 135.72 180.682C136.425 180.468 137.116 180.207 137.801 179.935C139.414 179.291 140.991 178.553 142.652 178.025C145.014 177.278 147.68 177.009 149.901 178.103C152.494 179.383 153.999 182.258 156.582 183.555C157.696 184.115 158.966 184.293 160.206 184.137C162.206 183.896 164.12 182.78 165.143 181.04C165.901 179.757 166.19 178.161 165.725 176.746C165.26 175.333 163.981 174.164 162.493 174.022C161.006 173.884 159.443 174.919 159.167 176.382C160.351 175.607 161.92 175.738 162.599 176.979C163.173 178.039 162.479 179.477 161.362 179.932C160.245 180.393 158.911 180.015 157.975 179.263C157.033 178.508 156.417 177.428 155.913 176.335C155.403 175.244 154.977 174.109 154.311 173.101C152.397 170.206 148.781 168.868 145.318 168.543C142.702 168.296 140.069 168.524 137.436 168.601C136.584 168.629 135.734 168.637 134.881 168.612C134.082 168.588 133.271 168.521 132.469 168.413C133.555 166.05 134.422 163.613 134.837 161.051C135.377 157.745 135.146 154.378 135.015 151.02C135.762 154.212 137.127 157.257 139.074 159.899C140.921 162.414 143.273 164.54 145.936 166.175C150.079 168.732 154.971 170.106 159.847 169.931C162.24 169.848 164.622 169.417 167.015 169.529C169.408 169.645 171.916 170.403 173.445 172.238C174.863 173.945 175.278 176.376 176.914 177.875C178.605 179.427 181.321 179.544 183.352 178.467C185.383 177.39 186.748 175.313 187.344 173.101C187.746 171.619 187.824 169.981 187.175 168.588C186.52 167.194 185.007 166.136 183.48 166.356C181.951 166.572 180.744 168.34 181.382 169.742C182.597 169.007 184.241 169.764 184.578 171.138C184.915 172.512 183.792 174.025 182.383 174.192C180.463 174.417 178.928 172.571 178.276 170.755C178.128 170.339 178 169.912 177.883 169.481C177.479 168.041 177.145 166.564 176.228 165.395C175.273 164.174 173.793 163.458 172.281 163.1C170.771 162.739 169.205 162.703 167.656 162.592C162.173 162.209 156.618 160.874 152.118 157.734C147.619 154.592 144.32 149.418 144.418 143.944C144.449 142.415 144.788 140.78 145.894 139.717C148.204 141.31 149.722 143.908 151.129 146.331C153.665 150.709 157.671 154.14 162.187 156.43C166.709 158.722 171.729 159.913 176.774 160.41C179.811 160.707 182.918 160.743 185.96 160.418C190.409 159.946 194.733 158.714 198.553 156.418C204.718 152.707 209.265 145.854 209 138.728L208.989 138.737ZM115.382 175.941C113.608 177.231 111.638 178.225 109.565 178.752C107.994 179.147 106.083 179.208 105.035 177.981C104.099 176.884 104.286 175.197 104.946 173.92C105.707 172.443 107.136 171.227 108.793 171.1C109.267 171.064 109.729 171.116 110.178 171.236C111.192 171.497 112.137 172.093 112.942 172.773C113.956 173.628 114.85 174.647 115.717 175.694C115.605 175.777 115.496 175.86 115.382 175.941ZM123.79 163.202C123.423 162.561 123.116 161.884 122.865 161.184C122.682 160.688 122.528 160.182 122.397 159.674C121.481 156.085 121.726 152.246 122.952 148.749C123.197 148.041 123.487 147.347 123.813 146.673C123.93 147.294 124.041 147.916 124.147 148.538C124.938 153.396 125.002 158.459 123.79 163.2V163.202Z" fill="#D6258D"/>
<path d="M76.5065 159.663C76.0273 162.031 75.4255 164.329 73.7122 165.95C71.6923 167.863 68.3519 168.204 65.9838 166.742C63.6185 165.276 62.44 162.148 63.2619 159.491C63.287 159.411 63.312 159.327 63.3455 159.252C63.5461 159.819 63.8247 160.357 64.1729 160.846C65.1703 162.25 66.7277 163.244 68.4188 163.56C69.5638 163.769 70.8175 163.66 71.7731 162.991C72.6646 162.364 73.18 161.34 73.6063 160.335C74.1468 159.072 74.612 157.77 75.1024 156.488C75.4367 157.604 75.9047 158.672 76.5065 159.666V159.663Z" fill="#FA8CCD"/>
<path d="M131.36 173.942C131.129 174.491 130.747 174.991 130.234 175.299C129.833 175.541 129.365 175.654 128.894 175.688C129.117 175.557 129.326 175.402 129.518 175.227C130.864 173.978 130.931 171.466 129.407 170.439C128.66 169.933 127.585 169.87 126.869 170.419C126.153 170.969 126.122 172.537 126.757 173.181C126.03 172.945 125.465 172.393 125.133 171.713C125.153 171.649 125.169 171.588 125.192 171.524C125.392 170.963 125.649 170.414 126.019 169.953C126.387 169.495 126.88 169.109 127.443 168.929C128.056 168.732 128.864 168.865 129.474 169.059C131.602 169.739 132.165 172.026 131.36 173.942Z" fill="#FA8CCD"/>
<path d="M115.304 176.018C115.067 177.553 114.117 178.933 112.858 179.849C111.585 180.781 110.016 181.264 108.442 181.4C107.172 181.509 105.86 181.398 104.717 180.84C102.692 179.857 101.494 177.456 101.831 175.235C102.168 173.015 103.957 171.105 106.136 170.53C107.492 170.167 109.103 170.375 110.097 171.313C109.649 171.194 109.183 171.144 108.713 171.18C107.055 171.305 105.626 172.521 104.865 173.997C104.205 175.272 104.018 176.962 104.954 178.056C106.002 179.283 107.916 179.224 109.484 178.827C111.557 178.303 113.53 177.309 115.301 176.018H115.304Z" fill="#FA8CCD"/>
<path d="M160.117 184.226C158.877 184.381 157.61 184.204 156.492 183.643C153.91 182.347 152.408 179.468 149.814 178.189C147.591 177.095 144.928 177.364 142.565 178.111C140.908 178.636 139.331 179.377 137.715 180.018C138.484 178.974 139.372 178.025 140.42 177.264C141.76 176.287 143.37 175.635 145.028 175.585C147.413 175.51 149.675 176.668 151.572 178.1C153.475 179.529 155.141 181.261 157.094 182.624C158.022 183.274 159.047 183.846 160.117 184.226Z" fill="#FA8CCD"/>
<path d="M86.9122 149.271C85.639 151.741 86.1182 154.775 87.2382 157.315C88.3581 159.858 90.0632 162.103 91.3057 164.587C93.3283 168.632 94.0527 173.52 92.3087 177.692C91.9326 178.586 91.4283 179.432 90.8182 180.201C91.7264 177.664 91.601 174.727 90.899 172.079C89.9573 168.526 88.113 165.287 86.7172 161.887C85.3214 158.486 84.3686 154.703 85.3158 151.15C85.9761 148.674 87.6059 146.426 89.8681 145.21C92.0161 144.055 94.7241 143.905 96.9195 144.957C96.5183 144.935 96.1171 144.924 95.7132 144.924C92.2697 144.938 88.4919 146.217 86.915 149.268L86.9122 149.271Z" fill="#FA8CCD"/>
<path d="M187.255 173.195C186.659 175.405 185.291 177.484 183.263 178.561C181.232 179.638 178.518 179.518 176.825 177.969C175.189 176.468 174.771 174.039 173.356 172.332C171.826 170.494 169.322 169.736 166.929 169.623C164.536 169.512 162.154 169.942 159.76 170.025C154.885 170.2 149.995 168.826 145.85 166.27C150.533 167.305 155.431 166.85 160.231 166.567C165.271 166.27 170.506 166.208 175.139 168.201C176.056 168.598 176.936 169.068 177.791 169.575C177.911 170.009 178.036 170.433 178.184 170.85C178.833 172.665 180.368 174.511 182.288 174.283C183.698 174.117 184.823 172.604 184.483 171.23C184.146 169.859 182.502 169.101 181.288 169.836C180.65 168.435 181.856 166.669 183.386 166.45C184.915 166.231 186.428 167.288 187.083 168.682C187.732 170.075 187.654 171.713 187.253 173.195H187.255Z" fill="#FA8CCD"/>
<path d="M198.463 156.507C194.649 158.803 190.323 160.038 185.873 160.507C190.983 159.058 195.75 156.429 199.67 152.857C203.854 149.037 207.053 144.158 208.914 138.817C209.178 145.945 204.632 152.799 198.463 156.507Z" fill="#FA8CCD"/>
<path d="M197.059 125.388C194.602 132.471 188.487 137.998 181.421 140.571C178.29 141.715 174.994 142.309 171.67 142.434C174.49 140.319 177.616 138.6 180.686 136.863C184.623 134.634 188.576 132.299 191.721 129.057C194.647 126.051 196.839 122.126 197.065 117.971C197.477 118.737 197.725 119.6 197.811 120.466C197.979 122.129 197.608 123.805 197.059 125.388Z" fill="#FA8CCD"/>
<path d="M192.07 76.4506C191.242 77.4721 189.924 78.1439 188.615 78.0079C187.913 77.9357 187.239 77.6026 186.74 77.1085C186.247 76.62 186.498 75.7928 187.177 75.654C188.049 75.4791 188.919 74.824 189.222 74.0496C189.674 72.8921 189.214 71.5125 188.32 70.6437C187.425 69.7749 186.174 69.3557 184.935 69.2086C180.46 68.684 176.145 71.4376 173.387 74.9878C169.146 80.4561 167.804 87.6176 167.483 94.5182C167.163 101.422 167.728 108.383 166.714 115.214C166.31 117.965 165.633 120.711 164.299 123.148C163.605 124.413 162.722 125.588 161.669 126.57C163.265 123.009 163.58 118.928 163.68 114.995C163.856 108.281 163.547 101.549 164.137 94.8624C164.722 88.17 166.263 81.4276 169.829 75.7262C172.141 72.0371 175.39 68.8283 179.212 66.7798C181.616 66.1747 184.16 65.8222 186.598 66.3024C188.871 66.7493 191.058 67.9873 192.267 69.9581C193.474 71.9261 193.521 74.6519 192.064 76.4506H192.07Z" fill="#FA8CCD"/>
<path d="M148.124 120.005C148.124 120.005 148.129 120.031 148.135 120.042C148.126 120.04 148.121 120.037 148.112 120.034C148.115 120.025 148.118 120.014 148.124 120.005Z" fill="#B51F77"/>
<g style="mix-blend-mode:multiply" opacity="0.5">
<path d="M122.737 123.747C122.592 124.611 120.751 130.334 118.152 132.025C115.552 133.715 113.465 134.115 111.334 134.268C109.203 134.423 104.676 134.962 101.486 134.434C98.2958 133.907 93.5289 133.763 92.877 133.715C92.2251 133.668 87.9402 133.954 85.7114 134.998C83.4854 136.041 79.9778 138.129 78.4623 140.349C76.9467 142.567 76.0552 143.791 75.2723 146.276C74.4894 148.76 74.573 151.938 74.573 151.938L75.0996 156.485C75.0996 156.485 68.5051 141.726 82.9505 134.051C87.4861 131.642 92.317 130.126 96.8638 129.019C97.4015 128.996 97.9364 128.98 98.4713 128.966C103.118 128.849 107.829 129.002 112.343 127.897C114.374 127.4 116.38 126.604 118.163 125.493C119.982 124.366 121.559 122.909 122.673 121.122C122.673 121.122 122.879 122.884 122.734 123.75L122.737 123.747Z" fill="#B82079"/>
<path d="M118.639 134.39C118.508 134.534 114.346 139.161 112.32 145.124C112.32 145.124 112.315 145.126 112.304 145.129C110.256 145.737 108.122 146.04 105.974 145.97C103.09 145.876 100.252 145.199 97.3847 144.99C98.9783 144.246 104.645 144.716 108.362 142.906C112.588 140.849 114.995 136.43 118.642 134.39H118.639Z" fill="#B82079"/>
<path d="M123.712 163.28L121.765 168.446C121.765 168.446 120.495 170.994 119.976 171.166C119.976 171.166 118.185 168.132 117.812 167.63C117.438 167.125 116.293 165.482 114.764 164.604C113.237 163.73 111.237 162.65 109.019 162.178C108.905 161.368 108.83 160.546 108.796 159.725C113.387 160.591 117.525 163.702 119.542 167.91C121.146 165.976 122.244 163.7 122.785 161.26C123.035 161.959 123.342 162.639 123.71 163.278L123.712 163.28Z" fill="#B82079"/>
<path d="M123.854 182.014C123.668 182.17 123.478 182.325 123.283 182.475C121.47 183.835 119.297 184.601 117.076 185.126C116.173 183.802 115.527 181.048 115.639 175.771C115.639 175.771 118.007 177.964 118.946 178.88C119.884 179.796 122.3 181.986 123.854 182.014Z" fill="#B82079"/>
<path d="M137.353 168.69C137.344 171.721 136.857 179.891 131.967 181.478C131.967 181.478 131.966 181.478 131.965 181.478C130.87 181.836 129.552 181.861 127.969 181.423C127.994 181.423 129.797 181.409 132.218 177.328C134.308 173.812 133.734 171.982 133.553 170.833C133.374 169.681 132.382 168.501 132.382 168.501C133.185 168.612 133.995 168.676 134.795 168.701C135.648 168.726 136.497 168.718 137.35 168.69H137.353Z" fill="#B82079"/>
<path d="M123.735 146.753C123.409 147.428 123.122 148.122 122.874 148.83C117.957 140.719 124.685 133.804 124.685 133.804C122.952 139.131 123.735 146.756 123.735 146.756V146.753Z" fill="#B82079"/>
<path d="M168.823 142.431C167.238 142.373 165.658 142.212 164.09 141.956C160.566 136.735 155.024 132.583 154.851 132.452C163.262 135.655 167.28 140.216 168.823 142.428V142.431Z" fill="#B82079"/>
<path d="M161.003 127.153C160.582 127.495 160.134 127.803 159.668 128.072C159.524 128.008 159.381 127.933 159.248 127.853C158.468 127.384 157.871 126.67 157.253 126.01C154.773 123.353 151.656 121.302 148.235 120.078C149.335 119.67 150.363 119.04 151.266 118.268C151.887 118.604 152.458 119.043 153.013 119.489C155.885 121.791 158.56 124.391 161.006 127.153H161.003Z" fill="#B82079"/>
</g>
<g style="mix-blend-mode:screen" opacity="0.5">
<path d="M133.845 93.1444C133.586 95.3373 133.107 97.6134 131.689 99.3094C130.53 100.706 128.819 101.58 127.039 101.952C125.259 102.324 123.409 102.218 121.62 101.899C115.912 100.875 110.56 97.458 107.724 92.4199C106.888 90.9432 106.3 89.3305 105.963 87.6705C108.27 82.1439 113.348 77.7887 119.23 76.5008C122.849 75.7069 126.682 76.0927 130.126 77.4501C131.012 78.4688 131.767 79.6013 132.349 80.8199C134.16 84.6061 134.333 88.9807 133.839 93.1444H133.845Z" fill="#D6258D"/>
</g>
<g style="mix-blend-mode:screen" opacity="0.5">
<path d="M111.574 135.589C112.343 135.602 112.769 136.474 112.312 137.09C111.164 138.639 109.891 140.094 108.228 141.037C105.57 142.547 102.333 142.525 99.2764 142.384C96.2202 142.242 93.0275 142.045 90.2275 143.277C86.667 144.846 84.3992 148.513 83.5356 152.296C82.8056 155.499 82.931 158.814 83.1929 162.103C83.2542 162.891 82.371 163.391 81.7135 162.947C78.791 160.973 76.7015 157.792 76.0022 154.331C75.1776 150.256 76.2335 145.881 78.6657 142.503C81.0978 139.128 84.8422 136.757 88.8986 135.797C92.278 134.997 95.8023 135.139 99.2709 135.286C102.372 135.416 108.526 135.533 111.571 135.586L111.574 135.589Z" fill="#D6258D"/>
</g>
<g style="mix-blend-mode:screen" opacity="0.5">
<path d="M116.126 172.221C116.251 172.587 115.783 172.865 115.524 172.573C113.421 170.225 110.108 168.948 106.969 169.401C103.511 169.9 100.455 172.471 99.3099 175.746C99.2068 176.04 98.7945 176.057 98.6524 175.78C97.6438 173.773 97.4628 171.474 98.4044 169.404C99.5383 166.908 102.037 165.121 104.751 164.69C107.467 164.26 110.328 165.143 112.435 166.903C114.076 168.274 115.418 170.17 116.126 172.224V172.221Z" fill="#D6258D"/>
</g>
<g style="mix-blend-mode:screen" opacity="0.5">
<path d="M194.989 151.33C195.374 151.452 195.505 151.93 195.248 152.238C191.576 156.646 185.77 159.086 180.006 159.216C173.983 159.352 168.054 157.143 163.129 153.687C158.827 150.667 155.244 146.739 152.191 142.459C151.843 141.97 152.389 141.346 152.921 141.623C158.248 144.393 163.597 147.327 169.113 149.631C175.329 152.227 182.31 153.681 188.832 151.985C190.866 151.458 193.061 150.722 194.992 151.327L194.989 151.33Z" fill="#D6258D"/>
</g>
<g style="mix-blend-mode:screen" opacity="0.5">
<path d="M137.587 139.342C136.038 143.708 136.141 148.643 137.904 152.932C139.796 157.534 143.574 161.334 148.176 163.261C151.419 164.618 154.966 165.054 158.498 165.07C159.078 165.073 159.281 164.304 158.78 164.018C155.353 162.084 151.971 160.041 149.123 157.343C145.775 154.17 143.181 149.959 142.9 145.362C142.76 143.072 143.131 140.535 141.766 138.687C141.757 138.675 141.752 138.667 141.743 138.656C140.289 136.721 138.395 137.057 137.587 139.336V139.342Z" fill="#D6258D"/>
</g>
<g style="mix-blend-mode:screen" opacity="0.5">
<path d="M129.282 137.468C128.181 136.394 126.359 136.763 125.768 138.179C124.983 140.055 124.802 142.223 124.977 144.274C125.236 147.258 126.153 150.148 126.607 153.11C127.095 156.293 127.042 159.558 126.454 162.725C126.223 163.977 127.134 165.126 128.407 165.243C128.931 165.292 129.449 165.381 129.956 165.509C131.248 165.839 132.519 164.912 132.614 163.588C132.845 160.324 133.165 157.01 133.316 153.79C133.472 150.475 133.625 147.117 132.915 143.872C132.391 141.473 131.065 139.208 129.279 137.465L129.282 137.468Z" fill="#D6258D"/>
</g>
<g style="mix-blend-mode:screen" opacity="0.5">
<path d="M119.065 135.986C114.8 141.782 112.262 148.824 111.861 155.999C113.967 158.464 116.029 160.874 118.135 163.338C118.533 163.805 118.946 164.282 119.556 164.471C119.837 164.56 120.149 164.563 120.419 164.449C121.107 164.157 121.194 163.355 121.213 162.669C121.47 153.909 121.094 144.513 119.065 135.986Z" fill="#D6258D"/>
</g>
<g style="mix-blend-mode:screen" opacity="0.5">
<path d="M159.563 131.328C159.159 131.197 158.858 131.7 159.164 131.988C161.017 133.729 162.998 135.347 165.324 136.346C168.5 137.709 172.127 137.804 175.507 137.074C178.309 136.469 180.965 135.328 183.489 133.954C183.862 133.751 183.698 133.185 183.274 133.213C179.12 133.482 174.874 133.429 170.746 133.102C166.94 132.802 163.156 132.483 159.56 131.325L159.563 131.328Z" fill="#D6258D"/>
</g>
<g style="mix-blend-mode:screen" opacity="0.5">
<path d="M153.993 117.979C153.874 118.179 153.932 118.437 154.13 118.559C155.267 119.253 156.785 119.256 158.011 118.698C159.362 118.079 160.376 116.866 160.995 115.517C161.613 114.168 161.875 112.686 162.042 111.212C162.675 105.649 162.064 99.9254 162.385 94.3655C162.415 93.8187 161.596 93.7438 161.529 94.2906C161.527 94.3183 161.524 94.3461 161.518 94.3711C161.192 97.083 161.07 99.8283 160.51 102.501C159.373 107.936 156.849 113.199 153.988 117.979H153.993Z" fill="#D6258D"/>
</g>
<path d="M132.474 116.186C132.474 118.609 130.502 120.575 128.07 120.575C126.309 120.575 124.788 119.542 124.083 118.051C123.818 117.485 123.668 116.852 123.668 116.186C123.668 113.766 125.64 111.8 128.07 111.8C129.061 111.8 129.978 112.128 130.716 112.677C131.786 113.48 132.477 114.754 132.477 116.186H132.474Z" fill="white"/>
<path d="M130.527 115.076C130.527 115.903 129.853 116.575 129.022 116.575C128.192 116.575 127.518 115.903 127.518 115.076C127.518 114.248 128.192 113.577 129.022 113.577C129.853 113.577 130.527 114.248 130.527 115.076Z" fill="#63003A"/>
<path d="M129.025 116.539C129.025 117.166 128.515 117.674 127.886 117.674C127.256 117.674 126.746 117.166 126.746 116.539C126.746 115.911 127.256 115.403 127.886 115.403C128.515 115.403 129.025 115.911 129.025 116.539Z" fill="white"/>
<g style="mix-blend-mode:multiply" opacity="0.5">
<path d="M130.714 112.677C129.212 112.796 127.744 113.368 126.568 114.312C125.381 115.267 124.506 116.597 124.08 118.054C123.815 117.488 123.665 116.855 123.665 116.188C123.665 113.768 125.637 111.803 128.067 111.803C129.059 111.803 129.975 112.13 130.714 112.68V112.677Z" fill="#ABABAB"/>
</g>
<path d="M123.871 117.521C123.657 117.052 123.54 116.53 123.531 116.003C123.52 115.475 123.595 114.934 123.788 114.432C124.158 113.416 124.933 112.552 125.899 112.042C126.872 111.534 128.031 111.409 129.075 111.686C130.123 111.956 131.042 112.636 131.569 113.527C130.85 112.788 129.939 112.294 128.975 112.128C128.496 112.044 128.006 112.039 127.529 112.114C127.053 112.18 126.588 112.328 126.167 112.555C125.314 112.994 124.621 113.727 124.203 114.604C123.994 115.042 123.866 115.523 123.813 116.017C123.743 116.511 123.776 117.019 123.868 117.524L123.871 117.521Z" fill="#63003A"/>
<path d="M147.886 111.928C147.886 114.351 145.914 116.317 143.482 116.317C141.721 116.317 140.2 115.284 139.495 113.794C139.23 113.227 139.08 112.594 139.08 111.928C139.08 109.508 141.052 107.542 143.482 107.542C144.474 107.542 145.39 107.87 146.128 108.42C147.198 109.222 147.889 110.493 147.889 111.928H147.886Z" fill="white"/>
<path d="M145.942 110.818C145.942 111.645 145.268 112.317 144.437 112.317C143.607 112.317 142.933 111.645 142.933 110.818C142.933 109.991 143.607 109.319 144.437 109.319C145.268 109.319 145.942 109.991 145.942 110.818Z" fill="#63003A"/>
<path d="M144.437 112.281C144.437 112.908 143.928 113.416 143.298 113.416C142.668 113.416 142.158 112.908 142.158 112.281C142.158 111.653 142.668 111.146 143.298 111.146C143.928 111.146 144.437 111.653 144.437 112.281Z" fill="white"/>
<g style="mix-blend-mode:multiply" opacity="0.5">
<path d="M146.128 108.417C144.627 108.536 143.159 109.108 141.983 110.052C140.796 111.007 139.921 112.336 139.495 113.794C139.23 113.227 139.08 112.594 139.08 111.928C139.08 109.508 141.052 107.542 143.482 107.542C144.474 107.542 145.39 107.87 146.128 108.42V108.417Z" fill="#ABABAB"/>
</g>
<path d="M139.283 113.263C139.069 112.794 138.952 112.272 138.943 111.745C138.932 111.218 139.008 110.676 139.2 110.174C139.57 109.158 140.345 108.295 141.312 107.784C142.284 107.276 143.443 107.151 144.488 107.429C145.535 107.698 146.454 108.378 146.981 109.269C146.262 108.531 145.351 108.036 144.387 107.87C143.908 107.787 143.418 107.781 142.941 107.856C142.465 107.923 142 108.07 141.579 108.297C140.726 108.736 140.033 109.469 139.615 110.346C139.406 110.784 139.278 111.265 139.225 111.759C139.155 112.253 139.189 112.761 139.281 113.266L139.283 113.263Z" fill="#63003A"/>
<path d="M75.2835 156.371C74.4644 153.626 74.2944 150.681 74.8182 147.849C75.3503 145.018 76.6263 142.331 78.4762 140.108C80.315 137.876 82.7109 136.108 85.3771 134.975C86.7116 134.409 88.1185 134.012 89.5533 133.787C90.9881 133.562 92.4396 133.512 93.8855 133.554C96.7774 133.643 99.6247 134.093 102.48 134.32C105.336 134.556 108.211 134.503 111.058 134.187C112.479 134.02 113.906 133.826 115.268 133.407C116.628 132.993 117.909 132.297 118.895 131.27C119.901 130.262 120.653 129.024 121.247 127.728C121.849 126.431 122.303 125.068 122.746 123.706C122.331 125.077 121.907 126.448 121.328 127.764C120.756 129.079 120.027 130.348 119.021 131.394C118.893 131.522 118.77 131.655 118.634 131.775L118.221 132.13C117.929 132.347 117.639 132.566 117.324 132.749C116.697 133.121 116.026 133.407 115.335 133.629C113.95 134.073 112.515 134.284 111.089 134.47C108.228 134.831 105.328 134.878 102.452 134.656C99.5801 134.437 96.7328 134.001 93.8716 133.923C92.4452 133.876 91.0132 133.92 89.6035 134.137C88.1965 134.351 86.8175 134.734 85.5053 135.286C82.8809 136.385 80.5323 138.126 78.6907 140.291C76.8436 142.456 75.5565 145.09 74.9909 147.885C74.4142 150.678 74.5173 153.609 75.2779 156.371H75.2835Z" fill="#63003A"/>
<path d="M122.746 121.104C123.155 121.557 123.506 122.015 123.882 122.462L124.44 123.136C124.626 123.361 124.816 123.589 124.997 123.836C124.718 123.705 124.467 123.533 124.233 123.339C123.999 123.147 123.79 122.925 123.595 122.695C123.217 122.226 122.899 121.696 122.746 121.104Z" fill="#63003A"/>
<path d="M112.385 144.973C113 142.98 113.886 141.073 114.942 139.272C116.006 137.476 117.246 135.774 118.695 134.27C117.475 135.96 116.31 137.673 115.262 139.461C114.207 141.243 113.273 143.089 112.385 144.976V144.973Z" fill="#63003A"/>
<path d="M123.785 147.322C123.665 146.764 123.581 146.198 123.498 145.634L123.406 144.782L123.336 143.927C123.261 142.786 123.272 141.637 123.345 140.496C123.425 139.355 123.568 138.214 123.796 137.093L123.977 136.255L124.183 135.422C124.342 134.872 124.501 134.326 124.696 133.787C124.64 134.067 124.584 134.345 124.52 134.623L124.362 135.461L124.208 136.299L124.077 137.14C123.919 138.262 123.788 139.389 123.715 140.518C123.634 141.648 123.612 142.781 123.62 143.916L123.637 144.768L123.676 145.62L123.724 146.472C123.749 146.756 123.768 147.039 123.785 147.325V147.322Z" fill="#63003A"/>
<path d="M115.547 175.71C116.979 176.718 118.179 178.003 119.455 179.157C120.091 179.74 120.751 180.296 121.453 180.79C122.155 181.287 122.904 181.714 123.71 182.05C122.86 181.853 122.038 181.5 121.291 181.031C120.539 180.573 119.854 180.015 119.205 179.43C117.912 178.244 116.781 176.937 115.547 175.71Z" fill="#63003A"/>
<path d="M154.737 132.449C155.222 132.73 155.687 133.043 156.15 133.362C156.604 133.693 157.047 134.037 157.484 134.389C158.356 135.097 159.175 135.866 159.964 136.666C160.744 137.473 161.493 138.309 162.181 139.194C162.524 139.639 162.861 140.085 163.184 140.543C163.496 141.01 163.808 141.473 164.087 141.959C163.911 141.743 163.739 141.52 163.569 141.301L163.039 140.654C162.688 140.221 162.329 139.797 161.961 139.378C161.226 138.542 160.476 137.72 159.696 136.927C158.922 136.127 158.117 135.358 157.298 134.606C156.888 134.231 156.467 133.865 156.038 133.507C155.827 133.324 155.609 133.151 155.395 132.971L154.737 132.452V132.449Z" fill="#63003A"/>
<path d="M148.137 120.139C149.057 121.18 149.965 122.204 150.937 123.173C151.901 124.15 152.921 125.066 153.954 125.99C152.745 125.299 151.656 124.413 150.672 123.431C149.695 122.44 148.817 121.346 148.134 120.139H148.137Z" fill="#63003A"/>
<path d="M148.625 120.142C150.486 120.797 152.235 121.757 153.843 122.909C155.442 124.069 156.908 125.424 158.111 126.984C156.69 125.624 155.214 124.347 153.626 123.209C152.046 122.062 150.366 121.063 148.625 120.144V120.142Z" fill="#63003A"/>
<path d="M135.62 139.008C135.152 141.06 134.831 143.125 134.737 145.209C134.631 147.291 134.748 149.379 135.015 151.466C134.458 149.434 134.269 147.302 134.366 145.193C134.475 143.083 134.87 140.979 135.62 139.011V139.008Z" fill="#63003A"/>
<path d="M109.075 162.214C110.131 162.447 111.17 162.763 112.184 163.155C113.192 163.56 114.168 164.057 115.07 164.67C115.973 165.284 116.786 166.042 117.461 166.902C118.14 167.757 118.712 168.687 119.263 169.614C119.806 170.547 120.33 171.485 120.938 172.365C121.542 173.245 122.239 174.058 123.063 174.73C123.888 175.393 124.855 175.901 125.905 176.082C126.955 176.276 128.042 176.032 129.073 175.735C128.067 176.109 126.983 176.398 125.877 176.262C124.782 176.112 123.76 175.615 122.885 174.955C122.002 174.294 121.289 173.445 120.659 172.559C120.032 171.668 119.492 170.727 118.943 169.803C118.405 168.873 117.851 167.951 117.196 167.11C116.873 166.688 116.513 166.297 116.132 165.925C115.744 165.561 115.335 165.22 114.906 164.901C114.042 164.271 113.098 163.754 112.114 163.319C111.624 163.099 111.122 162.899 110.615 162.716C110.106 162.539 109.593 162.369 109.075 162.214Z" fill="#63003A"/>
<path d="M119.979 171.341C120.756 170.053 121.411 168.723 121.985 167.349C122.57 165.981 123.077 164.576 123.69 163.199C123.356 164.665 122.91 166.1 122.328 167.491C121.737 168.873 120.996 170.219 119.979 171.338V171.341Z" fill="#63003A"/>
<path d="M124.988 171.802C124.484 170.813 124.54 169.573 125.061 168.573C125.587 167.56 126.61 166.858 127.719 166.605C128.836 166.325 130.048 166.575 131.023 167.158C131.513 167.452 131.959 167.821 132.324 168.26C132.68 168.687 133.015 169.154 133.288 169.645C133.555 170.142 133.778 170.672 133.876 171.246C133.901 171.388 133.912 171.535 133.915 171.682C133.915 171.832 133.909 171.979 133.89 172.113C133.859 172.39 133.831 172.668 133.781 172.942C133.603 174.042 133.327 175.13 132.884 176.154C132.446 177.178 131.898 178.158 131.207 179.03C130.505 179.893 129.688 180.662 128.758 181.264C130.53 179.937 131.839 178.083 132.619 176.049C133.012 175.03 133.291 173.972 133.447 172.893C133.491 172.623 133.516 172.351 133.544 172.082C133.58 171.807 133.566 171.566 133.525 171.305C133.435 170.791 133.221 170.292 132.962 169.822C132.706 169.348 132.396 168.909 132.051 168.487C131.714 168.077 131.301 167.727 130.847 167.446C129.936 166.891 128.825 166.666 127.777 166.883C126.732 167.088 125.746 167.718 125.217 168.659C124.668 169.587 124.559 170.78 124.986 171.799L124.988 171.802Z" fill="#63003A"/>
<path d="M122.5 108.822C122.356 109.108 122.219 109.461 122.392 109.73C122.559 109.991 122.93 110.024 123.236 109.971C124.033 109.83 124.74 109.263 125.05 108.52C125.317 107.873 125.105 106.921 124.239 107.126C123.389 107.329 122.865 108.098 122.498 108.822H122.5Z" fill="#FA8CCD"/>
<path d="M142.916 103.001C143.17 103.196 143.448 103.451 143.412 103.77C143.376 104.078 143.058 104.27 142.757 104.356C141.98 104.578 141.094 104.375 140.487 103.84C139.963 103.376 139.735 102.427 140.604 102.235C141.459 102.046 142.264 102.507 142.913 103.001H142.916Z" fill="#FA8CCD"/>
<path d="M113.984 85.4277C114.624 87.1265 116.009 88.4949 117.642 89.3027C118.806 89.8801 120.194 90.1854 121.414 89.7302C122.648 89.2694 123.515 88.0647 123.765 86.7767C124.016 85.4888 123.71 84.137 123.125 82.96C122.481 81.6693 121.486 80.5395 120.23 79.8262C118.973 79.1128 117.452 78.8408 116.045 79.1739C113.513 79.7734 113.206 83.3653 113.986 85.4277H113.984Z" fill="#FA8CCD"/>
<path d="M108.133 86.5602C108.49 87.1514 109.144 87.5511 109.833 87.5983C110.175 87.6205 110.54 87.5539 110.794 87.3235C111.097 87.0487 111.178 86.599 111.134 86.1937C111.058 85.5081 110.654 84.853 110.044 84.5283C109.529 84.2535 108.584 84.1896 108.108 84.6116C107.607 85.0557 107.827 86.0522 108.133 86.5602Z" fill="#FA8CCD"/>
<path d="M112.014 89.394C111.883 89.902 111.992 90.4794 112.351 90.8624C112.71 91.2455 113.329 91.3843 113.791 91.1345C114.346 90.8347 114.521 90.0658 114.285 89.4829C113.811 88.3198 112.387 87.9423 112.017 89.394H112.014Z" fill="#FA8CCD"/>
<path d="M127.203 88.8113C127.602 88.9418 128.078 88.8752 128.371 88.5781C128.61 88.3366 128.697 87.973 128.663 87.6344C128.627 87.2957 128.482 86.9765 128.312 86.6823C127.894 85.9606 126.145 84.5088 125.582 85.9023C125.189 86.8794 126.301 88.5171 127.203 88.8113Z" fill="#FA8CCD"/>
<path d="M122.904 79.2654C123.203 79.6373 123.673 79.8622 124.15 79.8649C124.47 79.8649 124.816 79.7483 124.977 79.4735C125.147 79.1849 125.064 78.8018 124.86 78.5353C124.657 78.2688 124.353 78.0995 124.055 77.9469C123.665 77.7498 122.93 77.3889 122.617 77.8664C122.37 78.2466 122.665 78.9628 122.907 79.2654H122.904Z" fill="#FA8CCD"/>
<path d="M112.825 101.974C113.309 102.168 113.883 102.274 114.343 102.021C114.694 101.827 114.914 101.455 115.023 101.072C115.24 100.303 115.062 99.4507 114.627 98.7818C114.193 98.1128 113.516 97.6159 112.775 97.3106C112.17 97.0608 110.966 96.7055 110.354 97.1024C109.841 97.4327 110.019 98.2377 110.133 98.7318C110.457 100.147 111.465 101.424 112.83 101.974H112.825Z" fill="#FA8CCD"/>
<path d="M127.061 151.083C127.187 151.511 127.376 151.938 127.71 152.235C128.045 152.532 128.549 152.674 128.953 152.482C129.452 152.249 129.627 151.635 129.694 151.091C129.789 150.314 129.766 149.495 129.438 148.782C129.137 148.13 127.955 146.878 127.242 147.702C126.565 148.479 126.802 150.195 127.064 151.08L127.061 151.083Z" fill="#FA8CCD"/>
<path d="M130.02 158.609C130.201 158.811 130.519 158.842 130.78 158.77C131.795 158.492 132.299 156.668 131.148 156.241C129.897 155.774 129.374 157.89 130.02 158.609Z" fill="#FA8CCD"/>
<path d="M138.556 155.577C138.949 155.947 139.601 155.969 140.052 155.677C140.506 155.386 140.752 154.828 140.721 154.292C140.676 153.482 139.205 151.558 138.269 152.341C137.578 152.918 138.005 155.058 138.556 155.577Z" fill="#FA8CCD"/>
<path d="M141.64 157.567C141.791 157.806 142.005 158.017 142.275 158.1C142.546 158.184 142.872 158.117 143.047 157.895C143.248 157.642 143.203 157.276 143.103 156.971C142.944 156.488 142.239 155.13 141.71 155.549C141.186 155.966 141.342 157.09 141.64 157.567Z" fill="#FA8CCD"/>
<path d="M110.259 156.116C110.276 156.66 110.465 157.221 110.877 157.573C111.29 157.929 111.953 158.015 112.382 157.679C112.652 157.468 112.794 157.129 112.864 156.793C112.984 156.224 112.925 155.614 112.677 155.086C112.443 154.586 111.68 153.615 111.011 153.79C110.326 153.97 110.239 155.558 110.259 156.116Z" fill="#FA8CCD"/>
<path d="M75.8574 152.887C75.8044 153.681 76.122 154.495 76.6987 155.044C77.0163 155.347 77.4398 155.577 77.8772 155.541C78.5319 155.486 78.9888 154.867 79.2451 154.264C79.4931 153.681 79.638 153.043 79.5627 152.416C79.4875 151.788 79.1671 151.172 78.6378 150.825C77.2086 149.895 75.9465 151.566 75.8574 152.89V152.887Z" fill="#FA8CCD"/>
<path d="M79.2145 143.083C79.1838 143.269 79.1755 143.469 79.2591 143.638C79.3872 143.899 79.7048 144.019 79.9973 144.01C80.4765 143.996 80.9056 143.713 81.2678 143.4C81.6634 143.058 82.0283 142.645 82.1426 142.134C82.3432 141.226 81.6244 140.455 80.7719 140.896C79.9611 141.315 79.3594 142.187 79.2173 143.08L79.2145 143.083Z" fill="#FA8CCD"/>
<path d="M158.997 142.922C159.17 143.133 159.44 143.319 159.699 143.236C159.953 143.156 160.064 142.859 160.078 142.595C160.106 142.062 159.632 140.893 158.933 140.954C158.136 141.024 158.73 142.598 159 142.925L158.997 142.922Z" fill="#FA8CCD"/>
<path d="M161.301 147.738C161.424 147.93 161.577 148.108 161.772 148.227C161.967 148.346 162.209 148.399 162.429 148.335C162.683 148.263 162.872 148.041 162.961 147.794C163.051 147.547 163.051 147.278 163.014 147.017C162.922 146.325 162.273 144.988 161.348 145.393C160.535 145.748 160.956 147.197 161.301 147.738Z" fill="#FA8CCD"/>
<path d="M166.012 150.947C166.227 151.05 166.461 151.119 166.697 151.108C166.934 151.097 167.174 151 167.322 150.817C167.586 150.489 167.5 150.003 167.335 149.615C167.032 148.893 165.895 147.344 165.051 148.305C164.265 149.199 165.126 150.528 166.012 150.95V150.947Z" fill="#FA8CCD"/>
<path d="M68.5803 165.253C68.3073 165.209 68.0092 165.209 67.7696 165.345C67.4019 165.553 67.2598 166.05 67.3935 166.45C67.5272 166.85 67.8866 167.147 68.285 167.288C68.6834 167.43 69.118 167.438 69.5387 167.405C70.1099 167.36 71.0877 166.855 70.5389 166.167C70.1405 165.667 69.1849 165.351 68.5803 165.253Z" fill="#FFABDC"/>
<path d="M69.6418 166.938C69.5164 167.041 69.2796 167.097 69.1403 167.11C68.8032 167.135 68.4522 167.041 68.182 166.833C68.0705 166.747 67.9646 166.622 67.9786 166.483C67.9786 166.475 67.9786 166.469 67.9786 166.461C68.0009 166.336 68.1235 166.247 68.246 166.206C68.4996 166.114 68.7865 166.153 69.0345 166.253C69.2351 166.333 69.4579 166.453 69.6195 166.603C69.77 166.741 69.7393 166.855 69.6418 166.936V166.938Z" fill="#FF94D2"/>
<path d="M69.6418 166.938C69.171 166.591 68.5664 166.425 67.9786 166.483C67.9786 166.475 67.9786 166.469 67.9786 166.461C68.0009 166.336 68.1234 166.247 68.246 166.206C68.4996 166.114 68.7865 166.153 69.0345 166.253C69.2351 166.333 69.4579 166.453 69.6195 166.603C69.77 166.741 69.7393 166.855 69.6418 166.936V166.938Z" fill="#F279BE"/>
<path d="M74.1635 162.594C74.052 162.944 73.9963 163.33 74.1273 163.674C74.3306 164.196 74.9603 164.474 75.5119 164.374C76.0635 164.274 76.5232 163.86 76.7851 163.366C77.0498 162.872 77.1417 162.306 77.1751 161.748C77.2225 160.99 76.7461 159.619 75.7348 160.207C74.9993 160.635 74.4031 161.823 74.1607 162.597L74.1635 162.594Z" fill="#FFABDC"/>
<path d="M76.5845 161.526C76.696 161.709 76.7238 162.028 76.7155 162.214C76.6848 162.661 76.4926 163.102 76.1694 163.416C76.0357 163.547 75.849 163.658 75.6707 163.616C75.6596 163.616 75.6512 163.616 75.6401 163.61C75.4785 163.555 75.3865 163.383 75.3531 163.214C75.2835 162.867 75.3865 162.497 75.5676 162.192C75.7125 161.945 75.9131 161.676 76.1415 161.495C76.3533 161.326 76.4954 161.384 76.5845 161.531V161.526Z" fill="#FF94D2"/>
<path d="M76.5845 161.526C76.0385 162.075 75.7041 162.836 75.6707 163.613C75.6596 163.613 75.6512 163.613 75.6401 163.608C75.4785 163.552 75.3865 163.38 75.3531 163.211C75.2835 162.864 75.3865 162.494 75.5676 162.189C75.7125 161.942 75.9131 161.673 76.1415 161.492C76.3533 161.323 76.4954 161.381 76.5845 161.528V161.526Z" fill="#F279BE"/>
<path d="M85.8006 156.787C85.9371 157.129 86.1405 157.465 86.4609 157.642C86.9484 157.917 87.6143 157.734 87.9764 157.309C88.3386 156.884 88.4306 156.274 88.3191 155.724C88.2077 155.177 87.9179 154.681 87.592 154.225C87.149 153.609 85.9037 152.848 85.4969 153.945C85.2016 154.739 85.4969 156.035 85.8006 156.787Z" fill="#FFABDC"/>
<path d="M86.993 154.43C87.1964 154.503 87.422 154.73 87.5307 154.88C87.7926 155.244 87.9235 155.707 87.8734 156.154C87.8511 156.34 87.7786 156.543 87.6143 156.623C87.6087 156.632 87.5975 156.634 87.5892 156.637C87.4304 156.698 87.2493 156.621 87.1128 156.51C86.837 156.285 86.6837 155.935 86.628 155.582C86.5834 155.299 86.5667 154.966 86.628 154.68C86.6837 154.414 86.8314 154.372 86.993 154.428V154.43Z" fill="#FF94D2"/>
<path d="M86.993 154.43C86.9205 155.202 87.1462 155.999 87.6143 156.623C87.6087 156.632 87.5975 156.634 87.5892 156.637C87.4304 156.698 87.2493 156.621 87.1128 156.51C86.837 156.285 86.6837 155.935 86.628 155.582C86.5834 155.299 86.5667 154.966 86.628 154.68C86.6837 154.414 86.8314 154.372 86.993 154.428V154.43Z" fill="#F279BE"/>
<path d="M89.2608 165.459C89.3973 165.8 89.6007 166.136 89.9211 166.314C90.4086 166.588 91.0745 166.405 91.4366 165.981C91.7988 165.556 91.8908 164.945 91.7793 164.396C91.6679 163.846 91.3781 163.352 91.0522 162.897C90.6064 162.28 89.3639 161.52 88.9571 162.616C88.6618 163.41 88.9571 164.706 89.2608 165.459Z" fill="#FFABDC"/>
<path d="M90.4504 163.105C90.6538 163.177 90.8794 163.405 90.9881 163.554C91.25 163.918 91.3809 164.382 91.3308 164.829C91.3085 165.015 91.236 165.217 91.0717 165.298C91.0661 165.306 91.055 165.309 91.0466 165.312C90.8878 165.373 90.7039 165.295 90.5702 165.184C90.2944 164.959 90.1412 164.609 90.0854 164.257C90.0409 163.974 90.0241 163.641 90.0854 163.355C90.1412 163.088 90.2888 163.046 90.4504 163.102V163.105Z" fill="#FF94D2"/>
<path d="M90.4504 163.105C90.378 163.876 90.6036 164.673 91.0717 165.298C91.0661 165.306 91.055 165.309 91.0466 165.312C90.8878 165.373 90.7039 165.295 90.5702 165.184C90.2944 164.959 90.1412 164.609 90.0854 164.257C90.0409 163.974 90.0241 163.641 90.0854 163.355C90.1412 163.088 90.2888 163.046 90.4504 163.102V163.105Z" fill="#F279BE"/>
<path d="M91.8406 173.1C91.9103 173.384 92.0301 173.667 92.2613 173.844C92.6151 174.114 93.1556 174.044 93.4871 173.75C93.8187 173.456 93.958 172.989 93.9329 172.545C93.9078 172.104 93.7351 171.682 93.5289 171.291C93.2503 170.758 92.3588 170.025 91.9186 170.838C91.5982 171.429 91.6846 172.476 91.8378 173.098L91.8406 173.1Z" fill="#FFABDC"/>
<path d="M93.0358 171.385C93.1862 171.466 93.3395 171.668 93.4091 171.799C93.5735 172.112 93.6236 172.49 93.5345 172.834C93.4955 172.976 93.4175 173.128 93.2782 173.173C93.2726 173.178 93.2642 173.181 93.2559 173.181C93.1249 173.212 92.9912 173.131 92.8965 173.028C92.7043 172.823 92.6235 172.531 92.6179 172.248C92.6151 172.021 92.6402 171.757 92.7182 171.54C92.7934 171.338 92.9132 171.321 93.033 171.382L93.0358 171.385Z" fill="#FF94D2"/>
<path d="M93.0358 171.385C92.8937 171.982 92.9801 172.631 93.2782 173.173C93.2726 173.178 93.2642 173.181 93.2559 173.181C93.1249 173.212 92.9912 173.131 92.8965 173.028C92.7043 172.823 92.6235 172.531 92.6179 172.248C92.6151 172.021 92.6402 171.757 92.7182 171.54C92.7934 171.338 92.9132 171.321 93.033 171.382L93.0358 171.385Z" fill="#F279BE"/>
<path d="M103.776 174.358C103.642 174.7 103.559 175.083 103.667 175.432C103.834 175.965 104.444 176.287 105.002 176.226C105.559 176.165 106.046 175.782 106.342 175.307C106.637 174.833 106.768 174.275 106.843 173.72C106.943 172.967 106.559 171.566 105.511 172.085C104.748 172.462 104.074 173.606 103.776 174.361V174.358Z" fill="#FFABDC"/>
<path d="M106.264 173.459C106.361 173.65 106.37 173.97 106.347 174.156C106.286 174.6 106.066 175.024 105.72 175.316C105.578 175.435 105.383 175.535 105.211 175.48C105.199 175.48 105.191 175.48 105.183 175.474C105.027 175.407 104.946 175.23 104.924 175.058C104.876 174.705 105.004 174.347 105.208 174.053C105.369 173.817 105.587 173.562 105.826 173.395C106.049 173.24 106.188 173.309 106.266 173.459H106.264Z" fill="#FF94D2"/>
<path d="M106.264 173.459C105.681 173.97 105.297 174.705 105.208 175.48C105.197 175.48 105.188 175.48 105.18 175.474C105.024 175.407 104.943 175.23 104.921 175.058C104.873 174.705 105.002 174.347 105.205 174.053C105.367 173.817 105.584 173.562 105.824 173.395C106.046 173.24 106.186 173.309 106.264 173.459Z" fill="#F279BE"/>
<path d="M110.315 179.954C110.66 179.826 111.003 179.635 111.192 179.321C111.482 178.841 111.317 178.175 110.9 177.803C110.482 177.431 109.872 177.323 109.32 177.417C108.766 177.511 108.261 177.786 107.796 178.1C107.166 178.525 106.37 179.743 107.456 180.179C108.245 180.495 109.554 180.237 110.315 179.957V179.954Z" fill="#FFABDC"/>
<path d="M107.983 178.702C108.061 178.503 108.295 178.283 108.448 178.178C108.821 177.928 109.289 177.809 109.735 177.872C109.919 177.9 110.122 177.975 110.198 178.144C110.206 178.15 110.209 178.161 110.211 178.169C110.267 178.33 110.186 178.508 110.072 178.639C109.838 178.908 109.484 179.052 109.13 179.097C108.846 179.133 108.509 179.141 108.225 179.072C107.96 179.008 107.921 178.861 107.98 178.7L107.983 178.702Z" fill="#FF94D2"/>
<path d="M107.983 178.702C108.754 178.796 109.56 178.594 110.2 178.144C110.209 178.15 110.211 178.161 110.214 178.169C110.27 178.33 110.189 178.508 110.075 178.638C109.841 178.907 109.487 179.052 109.133 179.096C108.849 179.132 108.512 179.141 108.228 179.071C107.963 179.007 107.924 178.86 107.983 178.699V178.702Z" fill="#F279BE"/>
<path d="M142.989 176.759C142.638 176.867 142.284 177.037 142.075 177.339C141.757 177.8 141.883 178.475 142.278 178.874C142.674 179.274 143.276 179.416 143.833 179.352C144.39 179.288 144.911 179.044 145.393 178.758C146.048 178.369 146.914 177.201 145.855 176.701C145.087 176.34 143.766 176.521 142.989 176.756V176.759Z" fill="#FFABDC"/>
<path d="M145.243 178.144C145.153 178.339 144.905 178.544 144.747 178.641C144.359 178.869 143.886 178.96 143.443 178.872C143.259 178.833 143.061 178.744 142.997 178.575C142.989 178.569 142.986 178.558 142.983 178.547C142.936 178.383 143.028 178.208 143.15 178.086C143.398 177.831 143.76 177.708 144.117 177.683C144.404 177.664 144.738 177.675 145.02 177.761C145.279 177.842 145.312 177.989 145.243 178.144Z" fill="#FF94D2"/>
<path d="M145.243 178.144C144.476 178.005 143.66 178.161 142.997 178.572C142.989 178.566 142.986 178.555 142.983 178.544C142.936 178.38 143.028 178.205 143.15 178.083C143.398 177.828 143.76 177.706 144.117 177.681C144.404 177.661 144.738 177.672 145.02 177.758C145.279 177.839 145.312 177.986 145.243 178.141V178.144Z" fill="#F279BE"/>
<path d="M151.355 178.522C151.096 178.372 150.801 178.255 150.505 178.3C150.054 178.366 149.72 178.81 149.7 179.266C149.681 179.718 149.926 180.157 150.271 180.454C150.617 180.751 151.049 180.925 151.486 181.056C152.079 181.231 153.255 181.103 152.971 180.198C152.765 179.54 151.926 178.858 151.358 178.524L151.355 178.522Z" fill="#FFABDC"/>
<path d="M151.767 180.623C151.6 180.676 151.341 180.642 151.196 180.601C150.845 180.495 150.533 180.265 150.341 179.954C150.263 179.823 150.207 179.657 150.274 179.526C150.274 179.518 150.28 179.513 150.282 179.504C150.355 179.388 150.511 179.346 150.65 179.349C150.94 179.357 151.213 179.504 151.425 179.701C151.595 179.86 151.773 180.068 151.876 180.279C151.971 180.476 151.901 180.578 151.767 180.623Z" fill="#FF94D2"/>
<path d="M151.767 180.623C151.43 180.093 150.887 179.693 150.274 179.523C150.274 179.515 150.28 179.51 150.282 179.501C150.355 179.385 150.511 179.343 150.65 179.346C150.94 179.354 151.213 179.501 151.425 179.698C151.595 179.857 151.773 180.065 151.876 180.276C151.971 180.473 151.901 180.576 151.767 180.62V180.623Z" fill="#F279BE"/>
<path d="M198.015 154.855C197.683 155.127 197.382 155.466 197.293 155.885C197.16 156.521 197.594 157.19 198.196 157.442C198.798 157.695 199.508 157.581 200.079 157.265C200.65 156.951 201.102 156.457 201.492 155.935C202.021 155.227 202.431 153.587 201.068 153.523C200.079 153.476 198.742 154.256 198.012 154.855H198.015Z" fill="#FFABDC"/>
<path d="M201.052 155.344C201.043 155.594 200.868 155.924 200.74 156.096C200.425 156.513 199.957 156.821 199.444 156.921C199.23 156.962 198.979 156.954 198.831 156.799C198.82 156.793 198.812 156.785 198.806 156.776C198.683 156.621 198.706 156.393 198.781 156.207C198.934 155.824 199.269 155.53 199.639 155.347C199.937 155.197 200.305 155.064 200.642 155.03C200.957 155 201.057 155.147 201.052 155.344Z" fill="#FF94D2"/>
<path d="M201.052 155.344C200.168 155.535 199.36 156.063 198.831 156.801C198.82 156.795 198.812 156.787 198.806 156.779C198.683 156.623 198.706 156.396 198.781 156.21C198.934 155.827 199.269 155.532 199.639 155.349C199.937 155.199 200.305 155.066 200.642 155.033C200.957 155.002 201.057 155.149 201.052 155.346V155.344Z" fill="#F279BE"/>
<path d="M204.991 148.452C204.857 148.76 204.771 149.104 204.857 149.426C204.994 149.917 205.537 150.228 206.047 150.189C206.557 150.151 207.011 149.818 207.295 149.396C207.579 148.974 207.716 148.469 207.802 147.966C207.916 147.286 207.613 145.995 206.64 146.437C205.935 146.756 205.284 147.777 204.991 148.455V148.452Z" fill="#FFABDC"/>
<path d="M207.284 147.708C207.367 147.886 207.365 148.177 207.337 148.344C207.267 148.746 207.053 149.127 206.729 149.382C206.596 149.487 206.417 149.571 206.259 149.515C206.25 149.515 206.242 149.512 206.234 149.507C206.091 149.443 206.025 149.276 206.011 149.118C205.98 148.796 206.108 148.474 206.3 148.211C206.456 148 206.663 147.775 206.885 147.63C207.094 147.497 207.217 147.564 207.284 147.703V147.708Z" fill="#FF94D2"/>
<path d="M207.284 147.708C206.738 148.155 206.364 148.813 206.261 149.515C206.253 149.515 206.245 149.512 206.236 149.507C206.094 149.443 206.027 149.276 206.013 149.118C205.983 148.796 206.111 148.474 206.303 148.211C206.459 148 206.665 147.775 206.888 147.63C207.097 147.497 207.22 147.564 207.287 147.703L207.284 147.708Z" fill="#F279BE"/>
<path d="M164.951 107.6C164.945 108.028 165.012 108.477 165.277 108.813C165.678 109.324 166.475 109.424 167.054 109.127C167.634 108.83 168.004 108.217 168.132 107.578C168.26 106.94 168.168 106.279 168.021 105.646C167.817 104.788 166.823 103.42 165.895 104.414C165.221 105.135 164.962 106.659 164.951 107.6Z" fill="#FFABDC"/>
<path d="M167.283 105.596C167.466 105.763 167.608 106.11 167.659 106.318C167.776 106.826 167.712 107.378 167.458 107.836C167.352 108.025 167.182 108.214 166.97 108.225C166.959 108.23 166.948 108.23 166.937 108.23C166.739 108.225 166.578 108.061 166.483 107.883C166.285 107.52 166.277 107.076 166.374 106.673C166.452 106.348 166.583 105.985 166.775 105.704C166.954 105.443 167.132 105.463 167.28 105.593L167.283 105.596Z" fill="#FF94D2"/>
<path d="M167.283 105.596C166.859 106.393 166.748 107.348 166.97 108.228C166.959 108.233 166.948 108.233 166.937 108.233C166.739 108.228 166.578 108.064 166.483 107.886C166.285 107.523 166.277 107.078 166.374 106.676C166.452 106.351 166.583 105.988 166.775 105.707C166.954 105.446 167.132 105.466 167.28 105.596H167.283Z" fill="#F279BE"/>
<path d="M165.664 97.2468C165.658 97.6743 165.725 98.1239 165.99 98.4598C166.391 98.9706 167.188 99.0705 167.767 98.7735C168.347 98.4765 168.717 97.863 168.845 97.2246C168.971 96.5862 168.882 95.9255 168.734 95.2926C168.531 94.4349 167.536 93.0665 166.608 94.0602C165.934 94.7819 165.675 96.3058 165.664 97.2468Z" fill="#FFABDC"/>
<path d="M167.996 95.2456C168.18 95.4122 168.322 95.7592 168.372 95.9673C168.489 96.4753 168.425 97.0277 168.171 97.4885C168.065 97.6772 167.895 97.866 167.684 97.8771C167.673 97.8826 167.661 97.8826 167.65 97.8826C167.452 97.8771 167.291 97.7133 167.196 97.5357C166.998 97.172 166.99 96.7279 167.087 96.3254C167.165 96.0007 167.296 95.637 167.489 95.3567C167.667 95.0958 167.845 95.1152 167.993 95.2456H167.996Z" fill="#FF94D2"/>
<path d="M167.996 95.2456C167.572 96.0423 167.461 96.9972 167.684 97.8771C167.673 97.8826 167.661 97.8826 167.65 97.8826C167.452 97.8771 167.291 97.7133 167.196 97.5357C166.998 97.172 166.99 96.7279 167.087 96.3254C167.165 96.0007 167.296 95.637 167.489 95.3567C167.667 95.0958 167.845 95.1152 167.993 95.2456H167.996Z" fill="#F279BE"/>
<path d="M166.993 87.2402C166.973 87.5872 167.01 87.9564 167.213 88.2395C167.522 88.6698 168.163 88.7808 168.648 88.5615C169.132 88.3422 169.456 87.8565 169.581 87.3429C169.706 86.8294 169.659 86.2881 169.561 85.7663C169.431 85.0612 168.67 83.9121 167.879 84.6837C167.305 85.2472 167.035 86.4741 166.99 87.2402H166.993Z" fill="#FFABDC"/>
<path d="M168.965 85.697C169.11 85.8413 169.21 86.1272 169.244 86.2993C169.322 86.7157 169.244 87.1654 169.024 87.529C168.929 87.6789 168.787 87.826 168.611 87.826C168.603 87.8288 168.592 87.8288 168.584 87.826C168.422 87.8121 168.297 87.6761 168.227 87.5262C168.082 87.2237 168.09 86.8628 168.185 86.5381C168.26 86.2771 168.383 85.9857 168.547 85.7664C168.703 85.561 168.845 85.5832 168.962 85.697H168.965Z" fill="#FF94D2"/>
<path d="M168.965 85.697C168.592 86.3299 168.464 87.1015 168.614 87.826C168.606 87.8288 168.595 87.8288 168.586 87.826C168.425 87.8121 168.299 87.6761 168.23 87.5262C168.085 87.2237 168.093 86.8628 168.188 86.5381C168.263 86.2771 168.386 85.9857 168.55 85.7664C168.706 85.561 168.848 85.5832 168.965 85.697Z" fill="#F279BE"/>
<path d="M169.818 78.9819C169.709 79.2289 169.639 79.5065 169.709 79.7674C169.818 80.1644 170.255 80.4142 170.668 80.3837C171.077 80.3531 171.445 80.0867 171.676 79.7452C171.907 79.4038 172.016 78.9986 172.086 78.5933C172.18 78.0437 171.935 77.0055 171.152 77.3581C170.584 77.6134 170.057 78.4378 169.818 78.9819Z" fill="#FFABDC"/>
<path d="M171.665 78.388C171.732 78.5296 171.729 78.7655 171.707 78.9016C171.651 79.2263 171.475 79.5317 171.216 79.7371C171.108 79.8203 170.963 79.8897 170.837 79.8425C170.829 79.8425 170.824 79.8425 170.815 79.837C170.701 79.7842 170.648 79.651 170.637 79.5233C170.612 79.2624 170.715 79.0043 170.871 78.7933C170.996 78.624 171.163 78.4435 171.345 78.327C171.512 78.2187 171.612 78.2742 171.665 78.3853V78.388Z" fill="#FF94D2"/>
<path d="M171.665 78.388C171.222 78.7489 170.921 79.2763 170.837 79.8425C170.829 79.8425 170.824 79.8425 170.815 79.837C170.701 79.7842 170.648 79.651 170.637 79.5233C170.612 79.2624 170.715 79.0043 170.871 78.7933C170.996 78.624 171.163 78.4435 171.345 78.327C171.512 78.2187 171.612 78.2742 171.665 78.3853V78.388Z" fill="#F279BE"/>
<path d="M173.757 71.9621C173.598 72.1786 173.467 72.4368 173.479 72.706C173.498 73.1168 173.871 73.4555 174.278 73.5165C174.685 73.5748 175.103 73.3944 175.401 73.1113C175.699 72.8281 175.897 72.4562 176.053 72.0759C176.265 71.5596 176.253 70.4937 175.412 70.6686C174.799 70.7963 174.105 71.4847 173.757 71.9649V71.9621Z" fill="#FFABDC"/>
<path d="M175.691 71.7817C175.724 71.9344 175.671 72.1648 175.618 72.2924C175.493 72.5978 175.256 72.8587 174.955 73.0003C174.83 73.0586 174.677 73.0946 174.562 73.0225C174.554 73.0225 174.548 73.0169 174.543 73.0114C174.443 72.9364 174.42 72.7949 174.437 72.6672C174.47 72.409 174.626 72.1759 174.824 72.0065C174.983 71.8677 175.186 71.729 175.387 71.654C175.574 71.5846 175.66 71.6596 175.688 71.7817H175.691Z" fill="#FF94D2"/>
<path d="M175.691 71.7817C175.181 72.0371 174.771 72.4895 174.565 73.0225C174.557 73.0225 174.551 73.0169 174.546 73.0114C174.445 72.9364 174.423 72.7949 174.44 72.6672C174.473 72.409 174.629 72.1759 174.827 72.0065C174.986 71.8677 175.189 71.729 175.39 71.654C175.576 71.5846 175.663 71.6596 175.691 71.7817Z" fill="#F279BE"/>
<path d="M180.076 67.3405C179.828 67.4487 179.585 67.6014 179.46 67.8401C179.268 68.2037 179.416 68.6839 179.739 68.9421C180.062 69.2002 180.51 69.253 180.912 69.1614C181.313 69.0698 181.672 68.8477 182.001 68.5979C182.444 68.2592 182.979 67.3349 182.165 67.0601C181.575 66.8602 180.625 67.1045 180.079 67.3405H180.076Z" fill="#FFABDC"/>
<path d="M181.837 68.1623C181.786 68.3122 181.625 68.4815 181.516 68.5648C181.254 68.7647 180.914 68.8701 180.586 68.8424C180.449 68.8313 180.296 68.7813 180.235 68.662C180.229 68.6564 180.226 68.6509 180.223 68.6425C180.176 68.526 180.229 68.3927 180.307 68.2928C180.466 68.0874 180.719 67.9652 180.978 67.9181C181.185 67.8792 181.433 67.8598 181.642 67.8986C181.839 67.9347 181.873 68.0402 181.837 68.1595V68.1623Z" fill="#FF94D2"/>
<path d="M181.837 68.1623C181.268 68.1262 180.683 68.3067 180.235 68.662C180.229 68.6564 180.226 68.6509 180.223 68.6425C180.176 68.526 180.229 68.3927 180.307 68.2928C180.466 68.0874 180.719 67.9652 180.978 67.9181C181.185 67.8792 181.433 67.8598 181.642 67.8986C181.839 67.9347 181.873 68.0402 181.837 68.1595V68.1623Z" fill="#F279BE"/>
<path d="M187.996 68.4037C187.801 68.301 187.578 68.2233 187.361 68.2621C187.03 68.3232 186.796 68.6619 186.793 68.9977C186.793 69.3336 186.985 69.6473 187.247 69.8582C187.509 70.0692 187.835 70.1858 188.161 70.269C188.604 70.3828 189.467 70.2524 189.233 69.5945C189.063 69.1143 188.425 68.6341 187.996 68.4037Z" fill="#FFABDC"/>
<path d="M188.359 69.9442C188.239 69.9886 188.047 69.972 187.938 69.9442C187.676 69.8776 187.439 69.7138 187.289 69.489C187.227 69.3946 187.18 69.2752 187.227 69.1753C187.227 69.1698 187.23 69.1642 187.233 69.1587C187.283 69.0698 187.397 69.0365 187.501 69.0337C187.715 69.031 187.921 69.1337 188.083 69.2725C188.214 69.3863 188.35 69.5334 188.431 69.6861C188.506 69.8304 188.456 69.9053 188.361 69.9414L188.359 69.9442Z" fill="#FF94D2"/>
<path d="M188.359 69.9442C188.094 69.5611 187.682 69.2808 187.225 69.1753C187.225 69.1698 187.227 69.1642 187.23 69.1587C187.28 69.0698 187.395 69.0365 187.498 69.0337C187.712 69.031 187.918 69.1337 188.08 69.2725C188.211 69.3863 188.347 69.5334 188.428 69.6861C188.503 69.8304 188.453 69.9053 188.359 69.9414V69.9442Z" fill="#F279BE"/>
<path d="M191.172 74.6603C191.256 74.4577 191.312 74.2301 191.25 74.0164C191.156 73.6944 190.796 73.4945 190.459 73.525C190.125 73.5556 189.83 73.7804 189.646 74.0608C189.462 74.3411 189.378 74.6742 189.328 75.0073C189.258 75.457 189.473 76.3036 190.108 76.0038C190.571 75.7873 190.989 75.1072 191.175 74.6576L191.172 74.6603Z" fill="#FFABDC"/>
<path d="M189.671 75.174C189.615 75.0574 189.612 74.8659 189.629 74.7549C189.671 74.4884 189.807 74.2358 190.019 74.0665C190.105 73.9971 190.222 73.9388 190.328 73.9749C190.334 73.9749 190.339 73.9749 190.345 73.9804C190.44 74.0221 190.484 74.1303 190.495 74.233C190.521 74.444 190.44 74.6577 190.314 74.8326C190.214 74.9714 190.08 75.1213 189.935 75.2184C189.799 75.3073 189.718 75.2656 189.674 75.174H189.671Z" fill="#FF94D2"/>
<path d="M189.671 75.1737C190.027 74.874 190.264 74.4382 190.328 73.9746C190.334 73.9746 190.339 73.9746 190.345 73.9802C190.44 74.0218 190.484 74.1301 190.495 74.2328C190.521 74.4437 190.44 74.6575 190.314 74.8323C190.214 74.9711 190.08 75.121 189.935 75.2182C189.799 75.307 189.718 75.2653 189.674 75.1737H189.671Z" fill="#F279BE"/>
<path d="M164.694 118.892C164.689 119.32 164.756 119.769 165.02 120.105C165.421 120.616 166.218 120.716 166.798 120.419C167.377 120.122 167.748 119.509 167.876 118.87C168.001 118.232 167.912 117.571 167.765 116.938C167.561 116.08 166.567 114.712 165.639 115.706C164.965 116.427 164.705 117.951 164.694 118.892Z" fill="#FFABDC"/>
<path d="M167.026 116.891C167.21 117.058 167.352 117.405 167.402 117.613C167.519 118.121 167.455 118.673 167.202 119.134C167.096 119.323 166.926 119.511 166.714 119.523C166.703 119.528 166.692 119.528 166.681 119.528C166.483 119.523 166.321 119.359 166.227 119.181C166.029 118.818 166.02 118.373 166.118 117.971C166.196 117.646 166.327 117.283 166.519 117.002C166.697 116.741 166.876 116.761 167.023 116.891H167.026Z" fill="#FF94D2"/>
<path d="M167.026 116.891C166.603 117.688 166.491 118.643 166.714 119.523C166.703 119.528 166.692 119.528 166.681 119.528C166.483 119.523 166.321 119.359 166.227 119.181C166.029 118.818 166.02 118.373 166.118 117.971C166.196 117.646 166.327 117.283 166.519 117.002C166.697 116.741 166.876 116.761 167.023 116.891H167.026Z" fill="#F279BE"/>
<path d="M155.027 167.763C154.609 167.852 154.183 168.016 153.91 168.343C153.497 168.845 153.573 169.639 153.991 170.139C154.408 170.639 155.091 170.866 155.743 170.85C156.395 170.833 157.025 170.603 157.612 170.319C158.409 169.936 159.532 168.668 158.356 167.985C157.501 167.488 155.952 167.566 155.03 167.76L155.027 167.763Z" fill="#FFABDC"/>
<path d="M157.495 169.595C157.373 169.811 157.064 170.025 156.868 170.119C156.398 170.344 155.84 170.402 155.336 170.255C155.127 170.194 154.907 170.069 154.849 169.867C154.84 169.858 154.838 169.847 154.838 169.833C154.801 169.639 154.924 169.448 155.077 169.317C155.389 169.048 155.824 168.942 156.239 168.948C156.573 168.954 156.96 169.001 157.275 169.128C157.568 169.245 157.59 169.423 157.493 169.595H157.495Z" fill="#FF94D2"/>
<path d="M157.495 169.595C156.623 169.356 155.662 169.456 154.851 169.864C154.843 169.856 154.84 169.845 154.84 169.831C154.804 169.637 154.927 169.445 155.08 169.315C155.392 169.045 155.827 168.94 156.242 168.946C156.576 168.951 156.963 168.998 157.278 169.126C157.571 169.243 157.593 169.42 157.495 169.592V169.595Z" fill="#F279BE"/>
<path d="M164.639 167.763C164.221 167.852 163.795 168.016 163.521 168.343C163.109 168.845 163.184 169.639 163.602 170.139C164.02 170.639 164.703 170.866 165.355 170.85C166.007 170.833 166.636 170.603 167.224 170.319C168.021 169.936 169.144 168.668 167.968 167.985C167.113 167.488 165.564 167.566 164.641 167.76L164.639 167.763Z" fill="#FFABDC"/>
<path d="M167.107 169.595C166.984 169.811 166.675 170.025 166.48 170.119C166.009 170.344 165.452 170.402 164.948 170.255C164.739 170.194 164.519 170.069 164.46 169.867C164.452 169.858 164.452 169.847 164.449 169.833C164.413 169.639 164.536 169.448 164.689 169.317C165.001 169.048 165.435 168.942 165.851 168.948C166.185 168.954 166.572 169.001 166.887 169.128C167.179 169.245 167.202 169.423 167.104 169.595H167.107Z" fill="#FF94D2"/>
<path d="M167.107 169.595C166.235 169.356 165.274 169.456 164.463 169.864C164.455 169.856 164.455 169.845 164.452 169.831C164.416 169.637 164.538 169.445 164.692 169.315C165.004 169.045 165.438 168.94 165.853 168.946C166.188 168.951 166.575 168.998 166.89 169.126C167.182 169.243 167.205 169.42 167.107 169.592V169.595Z" fill="#F279BE"/>
<path d="M174.696 170.742C174.451 170.494 174.153 170.272 173.805 170.231C173.275 170.167 172.76 170.569 172.598 171.075C172.437 171.58 172.579 172.146 172.877 172.587C173.175 173.029 173.61 173.356 174.061 173.637C174.677 174.014 176.042 174.228 176 173.123C175.969 172.318 175.234 171.291 174.696 170.744V170.742Z" fill="#FFABDC"/>
<path d="M174.515 173.24C174.312 173.251 174.03 173.132 173.88 173.04C173.518 172.815 173.233 172.46 173.114 172.049C173.066 171.88 173.052 171.674 173.169 171.544C173.169 171.536 173.18 171.527 173.186 171.522C173.303 171.411 173.49 171.413 173.649 171.461C173.972 171.558 174.236 171.808 174.412 172.096C174.554 172.327 174.691 172.615 174.743 172.885C174.791 173.137 174.679 173.229 174.515 173.24Z" fill="#FF94D2"/>
<path d="M174.515 173.24C174.298 172.538 173.807 171.921 173.169 171.547C173.169 171.538 173.18 171.53 173.186 171.525C173.303 171.414 173.49 171.416 173.649 171.463C173.972 171.561 174.236 171.81 174.412 172.099C174.554 172.33 174.69 172.618 174.743 172.887C174.791 173.14 174.679 173.232 174.515 173.243V173.24Z" fill="#F279BE"/>
<path d="M179.438 176.49C179.154 176.524 178.861 176.604 178.661 176.804C178.354 177.112 178.354 177.642 178.599 178C178.844 178.358 179.282 178.55 179.714 178.58C180.145 178.611 180.577 178.497 180.984 178.347C181.536 178.145 182.36 177.376 181.625 176.848C181.09 176.465 180.059 176.418 179.435 176.49H179.438Z" fill="#FFABDC"/>
<path d="M180.956 177.859C180.861 177.995 180.644 178.117 180.508 178.167C180.182 178.286 179.808 178.289 179.485 178.158C179.351 178.103 179.212 178.009 179.187 177.87C179.182 177.864 179.182 177.856 179.182 177.848C179.17 177.717 179.265 177.598 179.374 177.52C179.599 177.362 179.892 177.317 180.168 177.348C180.388 177.373 180.641 177.428 180.842 177.534C181.029 177.631 181.031 177.748 180.956 177.859Z" fill="#FF94D2"/>
<path d="M180.956 177.859C180.393 177.645 179.75 177.65 179.187 177.87C179.182 177.864 179.182 177.856 179.182 177.848C179.17 177.717 179.265 177.598 179.374 177.52C179.599 177.362 179.892 177.317 180.168 177.348C180.388 177.373 180.641 177.428 180.842 177.534C181.029 177.631 181.031 177.748 180.956 177.859Z" fill="#F279BE"/>
<path d="M184.536 174.489C184.43 174.752 184.366 175.047 184.45 175.319C184.578 175.732 185.049 175.982 185.481 175.935C185.912 175.888 186.289 175.594 186.52 175.227C186.751 174.861 186.854 174.428 186.913 174C186.993 173.42 186.701 172.332 185.887 172.732C185.297 173.02 184.77 173.906 184.539 174.489H184.536Z" fill="#FFABDC"/>
<path d="M186.464 173.798C186.539 173.945 186.545 174.194 186.525 174.336C186.478 174.68 186.305 175.008 186.038 175.233C185.926 175.324 185.776 175.402 185.642 175.358C185.634 175.358 185.628 175.358 185.62 175.352C185.497 175.302 185.436 175.16 185.422 175.03C185.386 174.758 185.486 174.48 185.645 174.253C185.77 174.07 185.94 173.875 186.127 173.748C186.3 173.628 186.406 173.681 186.467 173.8L186.464 173.798Z" fill="#FF94D2"/>
<path d="M186.464 173.798C186.01 174.192 185.712 174.761 185.642 175.358C185.634 175.358 185.628 175.358 185.62 175.352C185.497 175.302 185.436 175.16 185.422 175.03C185.386 174.758 185.486 174.48 185.645 174.253C185.77 174.07 185.94 173.875 186.127 173.748C186.3 173.628 186.406 173.681 186.467 173.8L186.464 173.798Z" fill="#F279BE"/>
<path d="M184.684 169.04C184.829 169.156 185.001 169.256 185.188 169.256C185.472 169.256 185.72 169.015 185.776 168.737C185.832 168.46 185.72 168.168 185.536 167.952C185.353 167.735 185.102 167.588 184.845 167.466C184.497 167.302 183.759 167.272 183.848 167.855C183.912 168.279 184.363 168.779 184.684 169.037V169.04Z" fill="#FFABDC"/>
<path d="M184.631 167.708C184.74 167.691 184.896 167.735 184.979 167.774C185.185 167.871 185.355 168.044 185.444 168.255C185.481 168.341 185.5 168.449 185.444 168.524C185.444 168.529 185.439 168.532 185.436 168.538C185.38 168.604 185.28 168.613 185.194 168.599C185.015 168.568 184.862 168.449 184.751 168.307C184.662 168.193 184.572 168.049 184.528 167.908C184.489 167.777 184.542 167.722 184.628 167.705L184.631 167.708Z" fill="#FF94D2"/>
<path d="M184.631 167.708C184.79 168.066 185.085 168.363 185.447 168.526C185.447 168.532 185.442 168.535 185.439 168.54C185.383 168.607 185.283 168.615 185.196 168.601C185.018 168.571 184.865 168.451 184.754 168.31C184.664 168.196 184.575 168.052 184.531 167.91C184.492 167.78 184.545 167.724 184.631 167.708Z" fill="#F279BE"/>
<path d="M186.453 134.57C186.16 134.881 185.904 135.259 185.871 135.683C185.821 136.33 186.339 136.941 186.968 137.113C187.598 137.285 188.286 137.082 188.813 136.696C189.339 136.311 189.721 135.764 190.041 135.198C190.476 134.429 190.668 132.749 189.311 132.858C188.325 132.935 187.099 133.882 186.453 134.57Z" fill="#FFABDC"/>
<path d="M189.531 134.667C189.554 134.914 189.423 135.264 189.32 135.453C189.063 135.908 188.637 136.272 188.141 136.435C187.935 136.502 187.682 136.53 187.52 136.394C187.509 136.391 187.501 136.383 187.492 136.374C187.35 136.235 187.342 136.008 187.392 135.814C187.495 135.414 187.787 135.081 188.133 134.85C188.412 134.664 188.754 134.484 189.086 134.409C189.395 134.34 189.512 134.47 189.531 134.667Z" fill="#FF94D2"/>
<path d="M189.532 134.667C188.679 134.97 187.946 135.597 187.517 136.397C187.506 136.394 187.498 136.385 187.489 136.377C187.347 136.238 187.339 136.011 187.389 135.816C187.492 135.417 187.785 135.084 188.13 134.853C188.409 134.667 188.751 134.487 189.083 134.412C189.392 134.343 189.509 134.473 189.529 134.67L189.532 134.667Z" fill="#F279BE"/>
<path d="M179.351 139.219C178.998 139.458 178.666 139.772 178.538 140.18C178.346 140.802 178.719 141.507 179.296 141.812C179.872 142.117 180.588 142.07 181.187 141.806C181.784 141.546 182.28 141.096 182.714 140.61C183.305 139.955 183.862 138.359 182.516 138.17C181.536 138.031 180.132 138.689 179.351 139.219Z" fill="#FFABDC"/>
<path d="M182.332 139.983C182.299 140.23 182.096 140.544 181.954 140.705C181.603 141.09 181.109 141.354 180.586 141.407C180.368 141.429 180.118 141.399 179.987 141.229C179.976 141.224 179.97 141.213 179.964 141.204C179.856 141.038 179.898 140.813 179.989 140.635C180.176 140.266 180.536 140.005 180.926 139.855C181.238 139.733 181.614 139.633 181.954 139.63C182.271 139.63 182.358 139.783 182.332 139.98V139.983Z" fill="#FF94D2"/>
<path d="M182.332 139.983C181.435 140.091 180.583 140.546 179.987 141.232C179.976 141.226 179.97 141.215 179.964 141.207C179.856 141.04 179.898 140.815 179.989 140.638C180.176 140.268 180.536 140.008 180.926 139.858C181.238 139.736 181.614 139.636 181.954 139.633C182.271 139.633 182.358 139.785 182.332 139.983Z" fill="#F279BE"/>
<path d="M192.462 130.742C192.309 130.978 192.187 131.253 192.217 131.533C192.262 131.961 192.669 132.294 193.098 132.333C193.527 132.372 193.95 132.158 194.245 131.847C194.541 131.536 194.725 131.136 194.867 130.728C195.056 130.179 194.984 129.066 194.117 129.296C193.488 129.463 192.802 130.22 192.465 130.742H192.462Z" fill="#FFABDC"/>
<path d="M194.471 130.442C194.516 130.601 194.471 130.842 194.426 130.978C194.312 131.303 194.081 131.589 193.777 131.755C193.652 131.825 193.49 131.869 193.368 131.8C193.359 131.8 193.354 131.794 193.348 131.791C193.24 131.719 193.206 131.572 193.217 131.439C193.237 131.167 193.387 130.917 193.585 130.725C193.744 130.573 193.947 130.415 194.151 130.326C194.343 130.242 194.435 130.315 194.471 130.442Z" fill="#FF94D2"/>
<path d="M194.471 130.442C193.953 130.739 193.552 131.233 193.368 131.8C193.359 131.8 193.354 131.794 193.348 131.791C193.24 131.719 193.206 131.572 193.217 131.439C193.237 131.167 193.387 130.917 193.585 130.725C193.744 130.573 193.947 130.415 194.151 130.326C194.343 130.242 194.435 130.315 194.471 130.442Z" fill="#F279BE"/>
<path d="M195.365 126.093C195.285 126.304 195.234 126.537 195.304 126.753C195.41 127.081 195.783 127.275 196.126 127.234C196.469 127.192 196.764 126.956 196.945 126.662C197.126 126.368 197.201 126.026 197.246 125.685C197.304 125.224 197.062 124.363 196.421 124.688C195.956 124.924 195.546 125.629 195.368 126.093H195.365Z" fill="#FFABDC"/>
<path d="M196.889 125.529C196.951 125.646 196.956 125.843 196.942 125.957C196.909 126.229 196.772 126.492 196.563 126.673C196.477 126.748 196.357 126.809 196.251 126.775C196.246 126.775 196.24 126.775 196.235 126.773C196.137 126.734 196.087 126.623 196.073 126.517C196.042 126.301 196.12 126.081 196.243 125.898C196.34 125.751 196.474 125.596 196.619 125.493C196.756 125.396 196.839 125.437 196.889 125.532V125.529Z" fill="#FF94D2"/>
<path d="M196.889 125.529C196.533 125.845 196.301 126.298 196.251 126.775C196.246 126.775 196.24 126.775 196.235 126.773C196.137 126.734 196.087 126.623 196.073 126.517C196.042 126.301 196.12 126.081 196.243 125.898C196.34 125.751 196.474 125.596 196.619 125.493C196.756 125.396 196.839 125.437 196.889 125.532V125.529Z" fill="#F279BE"/>
</g>
</g>
</g>
<defs>
<filter id="filter0_i_4906_7333" x="121" y="41" width="28.6405" height="24.2856" filterUnits="userSpaceOnUse" color-interpolation-filters="sRGB">
<feFlood flood-opacity="0" result="BackgroundImageFix"/>
<feBlend mode="normal" in="SourceGraphic" in2="BackgroundImageFix" result="shape"/>
<feColorMatrix in="SourceAlpha" type="matrix" values="0 0 0 0 0 0 0 0 0 0 0 0 0 0 0 0 0 0 127 0" result="hardAlpha"/>
<feOffset dy="0.5"/>
<feGaussianBlur stdDeviation="0.5"/>
<feComposite in2="hardAlpha" operator="arithmetic" k2="-1" k3="1"/>
<feColorMatrix type="matrix" values="0 0 0 0 0 0 0 0 0 0 0 0 0 0 0 0 0 0 0.25 0"/>
<feBlend mode="normal" in2="shape" result="effect1_innerShadow_4906_7333"/>
</filter>
<filter id="filter1_d_4906_7333" x="59.0011" y="66.002" width="154.01" height="129.996" filterUnits="userSpaceOnUse" color-interpolation-filters="sRGB">
<feFlood flood-opacity="0" result="BackgroundImageFix"/>
<feColorMatrix in="SourceAlpha" type="matrix" values="0 0 0 0 0 0 0 0 0 0 0 0 0 0 0 0 0 0 127 0" result="hardAlpha"/>
<feOffset dy="6"/>
<feGaussianBlur stdDeviation="2"/>
<feComposite in2="hardAlpha" operator="out"/>
<feColorMatrix type="matrix" values="0 0 0 0 0 0 0 0 0 0 0 0 0 0 0 0 0 0 0.42 0"/>
<feBlend mode="normal" in2="BackgroundImageFix" result="effect1_dropShadow_4906_7333"/>
<feBlend mode="normal" in="SourceGraphic" in2="effect1_dropShadow_4906_7333" result="shape"/>
</filter>
<linearGradient id="paint0_linear_4906_7333" x1="75.4363" y1="10.0993" x2="213.173" y2="219.209" gradientUnits="userSpaceOnUse">
<stop stop-color="#5280F4"/>
<stop offset="0.2" stop-color="#5574C2"/>
<stop offset="0.4" stop-color="#3E87B8"/>
<stop offset="0.6" stop-color="#519CC8"/>
<stop offset="0.8" stop-color="#437B92"/>
<stop offset="1" stop-color="#2C687C"/>
</linearGradient>
<linearGradient id="paint1_linear_4906_7333" x1="99.9064" y1="11.1139" x2="200.62" y2="244.348" gradientUnits="userSpaceOnUse">
<stop stop-color="#B9D4D4"/>
<stop offset="0.01" stop-color="#BAD5D5"/>
<stop offset="0.28" stop-color="#D8ECEC"/>
<stop offset="0.52" stop-color="#EBF9F9"/>
<stop offset="0.68" stop-color="#F2FFFF"/>
<stop offset="0.77" stop-color="#DDEDF0"/>
<stop offset="0.94" stop-color="#A9C2CB"/>
<stop offset="1" stop-color="#97B3BF"/>
</linearGradient>
<linearGradient id="paint2_linear_4906_7333" x1="99.7932" y1="11.1139" x2="200.507" y2="244.348" gradientUnits="userSpaceOnUse">
<stop stop-color="#8C9E9E"/>
<stop offset="0.07" stop-color="#829393"/>
<stop offset="0.19" stop-color="#6A7878"/>
<stop offset="0.35" stop-color="#424B4B"/>
<stop offset="0.54" stop-color="#0C0E0E"/>
<stop offset="0.58"/>
<stop offset="0.85" stop-color="#162021"/>
<stop offset="1" stop-color="#243436"/>
</linearGradient>
<linearGradient id="paint3_linear_4906_7333" x1="92.4323" y1="14.3271" x2="149.243" y2="123.14" gradientUnits="userSpaceOnUse">
<stop stop-color="#CBBD72"/>
<stop offset="0.26" stop-color="#B9AA5C"/>
<stop offset="0.71" stop-color="#8A7E3F"/>
<stop offset="1" stop-color="#61582D"/>
</linearGradient>
<radialGradient id="paint4_radial_4906_7333" cx="0" cy="0" r="1" gradientUnits="userSpaceOnUse" gradientTransform="translate(35.3483 67.4344) rotate(-90) scale(85.8539 9.92902)">
<stop stop-color="#9EDEFF"/>
<stop offset="0.08" stop-color="#80B4CF"/>
<stop offset="0.17" stop-color="#628A9F"/>
<stop offset="0.26" stop-color="#486574"/>
<stop offset="0.36" stop-color="#314650"/>
<stop offset="0.46" stop-color="#1F2C33"/>
<stop offset="0.57" stop-color="#11181C"/>
<stop offset="0.69" stop-color="#070A0C"/>
<stop offset="0.82" stop-color="#010202"/>
<stop offset="1"/>
</radialGradient>
<radialGradient id="paint5_radial_4906_7333" cx="0" cy="0" r="1" gradientUnits="userSpaceOnUse" gradientTransform="translate(35.3493 65.1972) rotate(-90) scale(19.9321 19.9082)">
<stop stop-color="#99DCFF"/>
<stop offset="0.08" stop-color="#7CB3CF"/>
<stop offset="0.17" stop-color="#5F899F"/>
<stop offset="0.26" stop-color="#466474"/>
<stop offset="0.36" stop-color="#304550"/>
<stop offset="0.46" stop-color="#1E2C33"/>
<stop offset="0.57" stop-color="#11181C"/>
<stop offset="0.69" stop-color="#070A0C"/>
<stop offset="0.82" stop-color="#010202"/>
<stop offset="1"/>
</radialGradient>
<radialGradient id="paint6_radial_4906_7333" cx="0" cy="0" r="1" gradientUnits="userSpaceOnUse" gradientTransform="translate(46.0122 67.3426) rotate(1.662) scale(22.7967 81.311)">
<stop stop-color="#0A2533"/>
<stop offset="0.16" stop-color="#071A23"/>
<stop offset="0.44" stop-color="#030B10"/>
<stop offset="0.72" stop-color="#000204"/>
<stop offset="1"/>
</radialGradient>
<radialGradient id="paint7_radial_4906_7333" cx="0" cy="0" r="1" gradientUnits="userSpaceOnUse" gradientTransform="translate(39.1022 65.1917) rotate(-30.3501) scale(19.3988 19.4103)">
<stop stop-color="#99CEE8"/>
<stop offset="1"/>
</radialGradient>
<radialGradient id="paint8_radial_4906_7333" cx="0" cy="0" r="1" gradientUnits="userSpaceOnUse" gradientTransform="translate(37.3069 66.479) rotate(-30.3901) scale(0.780558 43.8932)">
<stop stop-color="#A0D0E8"/>
<stop offset="1"/>
</radialGradient>
<radialGradient id="paint9_radial_4906_7333" cx="0" cy="0" r="1" gradientUnits="userSpaceOnUse" gradientTransform="translate(35.7559 60.0715) rotate(59.6701) scale(0.781017 43.8673)">
<stop stop-color="#A0D0E8"/>
<stop offset="1"/>
</radialGradient>
<radialGradient id="paint10_radial_4906_7333" cx="0" cy="0" r="1" gradientUnits="userSpaceOnUse" gradientTransform="translate(40.0751 62.2361) rotate(-75.3069) scale(0.391837 21.9981)">
<stop stop-color="#9BCEE8"/>
<stop offset="1"/>
</radialGradient>
<radialGradient id="paint11_radial_4906_7333" cx="0" cy="0" r="1" gradientUnits="userSpaceOnUse" gradientTransform="translate(32.5102 63.7006) rotate(14.7269) scale(0.391351 22.017)">
<stop stop-color="#9BCEE8"/>
<stop offset="1"/>
</radialGradient>
<radialGradient id="paint12_radial_4906_7333" cx="0" cy="0" r="1" gradientUnits="userSpaceOnUse" gradientTransform="translate(38.0258 64.9159) rotate(59.71) scale(5.93688 25.1388)">
<stop stop-color="#A5D1E8"/>
<stop offset="1"/>
</radialGradient>
<radialGradient id="paint13_radial_4906_7333" cx="0" cy="0" r="1" gradientUnits="userSpaceOnUse" gradientTransform="translate(39.4022 65.4305) rotate(-30.3501) scale(5.93337 25.1536)">
<stop stop-color="#99CDE8"/>
<stop offset="1"/>
</radialGradient>
<radialGradient id="paint14_radial_4906_7333" cx="0" cy="0" r="1" gradientUnits="userSpaceOnUse" gradientTransform="translate(39.1009 65.1923) rotate(-30.3501) scale(8.99541 9.00072)">
<stop stop-color="#A6E0FF"/>
<stop offset="0.16" stop-color="#A3DDFB"/>
<stop offset="0.29" stop-color="#9DD4F1"/>
<stop offset="0.41" stop-color="#92C5E1"/>
<stop offset="0.53" stop-color="#83B0C9"/>
<stop offset="0.63" stop-color="#6F95AA"/>
<stop offset="0.74" stop-color="#567484"/>
<stop offset="0.84" stop-color="#394D58"/>
<stop offset="0.94" stop-color="#182125"/>
<stop offset="1"/>
</radialGradient>
<clipPath id="clip0_4906_7333">
<rect width="280" height="280" fill="white"/>
</clipPath>
<clipPath id="clip1_4906_7333">
<rect width="319" height="336" fill="white" transform="translate(-28 -20)"/>
</clipPath>
</defs>
</svg>
